solid 
 facet normal  0.000000e+00  0.000000e+00 -1.000000e+00
   outer loop
     vertex -2.871389e-03  6.626423e-03 -5.000000e-04
     vertex -5.285088e-03  5.500897e-03 -5.000000e-04
     vertex -5.290480e-03  5.624403e-03 -5.000000e-04
   endloop
 endfacet
 facet normal  0.000000e+00  0.000000e+00 -1.000000e+00
   outer loop
     vertex -2.871389e-03  6.626423e-03 -5.000000e-04
     vertex -5.268951e-03  5.378331e-03 -5.000000e-04
     vertex -5.285088e-03  5.500897e-03 -5.000000e-04
   endloop
 endfacet
 facet normal  0.000000e+00  0.000000e+00 -1.000000e+00
   outer loop
     vertex -2.871389e-03  6.626423e-03 -5.000000e-04
     vertex -5.242194e-03  5.257638e-03 -5.000000e-04
     vertex -5.268951e-03  5.378331e-03 -5.000000e-04
   endloop
 endfacet
 facet normal  0.000000e+00  0.000000e+00 -1.000000e+00
   outer loop
     vertex -2.871389e-03  6.626423e-03 -5.000000e-04
     vertex -5.205020e-03  5.139736e-03 -5.000000e-04
     vertex -5.242194e-03  5.257638e-03 -5.000000e-04
   endloop
 endfacet
 facet normal  0.000000e+00  0.000000e+00 -1.000000e+00
   outer loop
     vertex -2.871389e-03  6.626423e-03 -5.000000e-04
     vertex -5.157711e-03  5.025523e-03 -5.000000e-04
     vertex -5.205020e-03  5.139736e-03 -5.000000e-04
   endloop
 endfacet
 facet normal  0.000000e+00  0.000000e+00 -1.000000e+00
   outer loop
     vertex -2.871389e-03  6.626423e-03 -5.000000e-04
     vertex -5.100628e-03  4.915868e-03 -5.000000e-04
     vertex -5.157711e-03  5.025523e-03 -5.000000e-04
   endloop
 endfacet
 facet normal  0.000000e+00  0.000000e+00 -1.000000e+00
   outer loop
     vertex -2.871389e-03  6.626423e-03 -5.000000e-04
     vertex -5.034206e-03  4.811605e-03 -5.000000e-04
     vertex -5.100628e-03  4.915868e-03 -5.000000e-04
   endloop
 endfacet
 facet normal  0.000000e+00  0.000000e+00 -1.000000e+00
   outer loop
     vertex -2.871389e-03  6.626423e-03 -5.000000e-04
     vertex -4.958948e-03  4.713527e-03 -5.000000e-04
     vertex -5.034206e-03  4.811605e-03 -5.000000e-04
   endloop
 endfacet
 facet normal  0.000000e+00  0.000000e+00 -1.000000e+00
   outer loop
     vertex -2.871389e-03  6.626423e-03 -5.000000e-04
     vertex -4.875430e-03  4.622383e-03 -5.000000e-04
     vertex -4.958948e-03  4.713527e-03 -5.000000e-04
   endloop
 endfacet
 facet normal  0.000000e+00  0.000000e+00 -1.000000e+00
   outer loop
     vertex -2.871389e-03  6.626423e-03 -5.000000e-04
     vertex -4.784285e-03  4.538864e-03 -5.000000e-04
     vertex -4.875430e-03  4.622383e-03 -5.000000e-04
   endloop
 endfacet
 facet normal  0.000000e+00  0.000000e+00 -1.000000e+00
   outer loop
     vertex -2.871389e-03  6.626423e-03 -5.000000e-04
     vertex -4.686208e-03  4.463607e-03 -5.000000e-04
     vertex -4.784285e-03  4.538864e-03 -5.000000e-04
   endloop
 endfacet
 facet normal  0.000000e+00  0.000000e+00 -1.000000e+00
   outer loop
     vertex -2.871389e-03  6.626423e-03 -5.000000e-04
     vertex -4.581945e-03  4.397184e-03 -5.000000e-04
     vertex -4.686208e-03  4.463607e-03 -5.000000e-04
   endloop
 endfacet
 facet normal  0.000000e+00  0.000000e+00 -1.000000e+00
   outer loop
     vertex -2.871389e-03  6.626423e-03 -5.000000e-04
     vertex -4.472289e-03  4.340101e-03 -5.000000e-04
     vertex -4.581945e-03  4.397184e-03 -5.000000e-04
   endloop
 endfacet
 facet normal  0.000000e+00  0.000000e+00 -1.000000e+00
   outer loop
     vertex -2.871389e-03  6.626423e-03 -5.000000e-04
     vertex -4.358076e-03  4.292792e-03 -5.000000e-04
     vertex -4.472289e-03  4.340101e-03 -5.000000e-04
   endloop
 endfacet
 facet normal  0.000000e+00  0.000000e+00 -1.000000e+00
   outer loop
     vertex -2.871389e-03  6.626423e-03 -5.000000e-04
     vertex -4.240174e-03  4.255618e-03 -5.000000e-04
     vertex -4.358076e-03  4.292792e-03 -5.000000e-04
   endloop
 endfacet
 facet normal  0.000000e+00  0.000000e+00 -1.000000e+00
   outer loop
     vertex -2.871389e-03  6.626423e-03 -5.000000e-04
     vertex -4.119481e-03  4.228861e-03 -5.000000e-04
     vertex -4.240174e-03  4.255618e-03 -5.000000e-04
   endloop
 endfacet
 facet normal  0.000000e+00  0.000000e+00 -1.000000e+00
   outer loop
     vertex -2.871389e-03  6.626423e-03 -5.000000e-04
     vertex -3.996915e-03  4.212725e-03 -5.000000e-04
     vertex -4.119481e-03  4.228861e-03 -5.000000e-04
   endloop
 endfacet
 facet normal  0.000000e+00  0.000000e+00 -1.000000e+00
   outer loop
     vertex -2.871389e-03  6.626423e-03 -5.000000e-04
     vertex -3.873409e-03  4.207332e-03 -5.000000e-04
     vertex -3.996915e-03  4.212725e-03 -5.000000e-04
   endloop
 endfacet
 facet normal  0.000000e+00  0.000000e+00 -1.000000e+00
   outer loop
     vertex -2.871389e-03  6.626423e-03 -5.000000e-04
     vertex -3.749904e-03  4.212725e-03 -5.000000e-04
     vertex -3.873409e-03  4.207332e-03 -5.000000e-04
   endloop
 endfacet
 facet normal  0.000000e+00  0.000000e+00 -1.000000e+00
   outer loop
     vertex -2.871389e-03  6.626423e-03 -5.000000e-04
     vertex -3.627338e-03  4.228861e-03 -5.000000e-04
     vertex -3.749904e-03  4.212725e-03 -5.000000e-04
   endloop
 endfacet
 facet normal  0.000000e+00  0.000000e+00 -1.000000e+00
   outer loop
     vertex -2.871389e-03  6.626423e-03 -5.000000e-04
     vertex -3.506645e-03  4.255618e-03 -5.000000e-04
     vertex -3.627338e-03  4.228861e-03 -5.000000e-04
   endloop
 endfacet
 facet normal  0.000000e+00  0.000000e+00 -1.000000e+00
   outer loop
     vertex -2.871389e-03  6.626423e-03 -5.000000e-04
     vertex -3.388743e-03  4.292792e-03 -5.000000e-04
     vertex -3.506645e-03  4.255618e-03 -5.000000e-04
   endloop
 endfacet
 facet normal  0.000000e+00  0.000000e+00 -1.000000e+00
   outer loop
     vertex -2.871389e-03  6.626423e-03 -5.000000e-04
     vertex -3.274530e-03  4.340101e-03 -5.000000e-04
     vertex -3.388743e-03  4.292792e-03 -5.000000e-04
   endloop
 endfacet
 facet normal  0.000000e+00  0.000000e+00 -1.000000e+00
   outer loop
     vertex -2.871389e-03  6.626423e-03 -5.000000e-04
     vertex -3.164874e-03  4.397184e-03 -5.000000e-04
     vertex -3.274530e-03  4.340101e-03 -5.000000e-04
   endloop
 endfacet
 facet normal  0.000000e+00  0.000000e+00 -1.000000e+00
   outer loop
     vertex -2.871389e-03  6.626423e-03 -5.000000e-04
     vertex -3.060611e-03  4.463607e-03 -5.000000e-04
     vertex -3.164874e-03  4.397184e-03 -5.000000e-04
   endloop
 endfacet
 facet normal  0.000000e+00  0.000000e+00 -1.000000e+00
   outer loop
     vertex -2.871389e-03  6.626423e-03 -5.000000e-04
     vertex -2.962534e-03  4.538864e-03 -5.000000e-04
     vertex -3.060611e-03  4.463607e-03 -5.000000e-04
   endloop
 endfacet
 facet normal  0.000000e+00  0.000000e+00 -1.000000e+00
   outer loop
     vertex -2.871389e-03  6.626423e-03 -5.000000e-04
     vertex -2.871389e-03  4.622383e-03 -5.000000e-04
     vertex -2.962534e-03  4.538864e-03 -5.000000e-04
   endloop
 endfacet
 facet normal  0.000000e+00 -0.000000e+00 -1.000000e+00
   outer loop
     vertex -2.871389e-03  6.626423e-03 -5.000000e-04
     vertex -2.787871e-03  4.713527e-03 -5.000000e-04
     vertex -2.871389e-03  4.622383e-03 -5.000000e-04
   endloop
 endfacet
 facet normal  0.000000e+00  0.000000e+00 -1.000000e+00
   outer loop
     vertex -2.871389e-03  6.626423e-03 -5.000000e-04
     vertex -2.712613e-03  4.811605e-03 -5.000000e-04
     vertex -2.787871e-03  4.713527e-03 -5.000000e-04
   endloop
 endfacet
 facet normal  0.000000e+00  0.000000e+00 -1.000000e+00
   outer loop
     vertex -2.871389e-03  6.626423e-03 -5.000000e-04
     vertex -2.646190e-03  4.915868e-03 -5.000000e-04
     vertex -2.712613e-03  4.811605e-03 -5.000000e-04
   endloop
 endfacet
 facet normal  0.000000e+00  0.000000e+00 -1.000000e+00
   outer loop
     vertex -2.871389e-03  6.626423e-03 -5.000000e-04
     vertex -2.589108e-03  5.025523e-03 -5.000000e-04
     vertex -2.646190e-03  4.915868e-03 -5.000000e-04
   endloop
 endfacet
 facet normal  0.000000e+00  0.000000e+00 -1.000000e+00
   outer loop
     vertex -2.871389e-03  6.626423e-03 -5.000000e-04
     vertex -2.541799e-03  5.139736e-03 -5.000000e-04
     vertex -2.589108e-03  5.025523e-03 -5.000000e-04
   endloop
 endfacet
 facet normal  0.000000e+00  0.000000e+00 -1.000000e+00
   outer loop
     vertex -2.871389e-03  6.626423e-03 -5.000000e-04
     vertex -2.504625e-03  5.257638e-03 -5.000000e-04
     vertex -2.541799e-03  5.139736e-03 -5.000000e-04
   endloop
 endfacet
 facet normal  0.000000e+00  0.000000e+00 -1.000000e+00
   outer loop
     vertex -2.871389e-03  6.626423e-03 -5.000000e-04
     vertex -2.477868e-03  5.378331e-03 -5.000000e-04
     vertex -2.504625e-03  5.257638e-03 -5.000000e-04
   endloop
 endfacet
 facet normal  0.000000e+00  0.000000e+00 -1.000000e+00
   outer loop
     vertex -2.871389e-03  6.626423e-03 -5.000000e-04
     vertex -2.461731e-03  5.500897e-03 -5.000000e-04
     vertex -2.477868e-03  5.378331e-03 -5.000000e-04
   endloop
 endfacet
 facet normal  0.000000e+00  0.000000e+00 -1.000000e+00
   outer loop
     vertex -2.871389e-03  6.626423e-03 -5.000000e-04
     vertex -2.456339e-03  5.624403e-03 -5.000000e-04
     vertex -2.461731e-03  5.500897e-03 -5.000000e-04
   endloop
 endfacet
 facet normal  0.000000e+00  0.000000e+00 -1.000000e+00
   outer loop
     vertex -2.871389e-03  6.626423e-03 -5.000000e-04
     vertex -2.461731e-03  5.747909e-03 -5.000000e-04
     vertex -2.456339e-03  5.624403e-03 -5.000000e-04
   endloop
 endfacet
 facet normal  0.000000e+00  0.000000e+00 -1.000000e+00
   outer loop
     vertex -2.871389e-03  6.626423e-03 -5.000000e-04
     vertex -2.477868e-03  5.870475e-03 -5.000000e-04
     vertex -2.461731e-03  5.747909e-03 -5.000000e-04
   endloop
 endfacet
 facet normal  0.000000e+00  0.000000e+00 -1.000000e+00
   outer loop
     vertex -2.871389e-03  6.626423e-03 -5.000000e-04
     vertex -2.504625e-03  5.991168e-03 -5.000000e-04
     vertex -2.477868e-03  5.870475e-03 -5.000000e-04
   endloop
 endfacet
 facet normal  0.000000e+00  0.000000e+00 -1.000000e+00
   outer loop
     vertex -2.871389e-03  6.626423e-03 -5.000000e-04
     vertex -2.541799e-03  6.109069e-03 -5.000000e-04
     vertex -2.504625e-03  5.991168e-03 -5.000000e-04
   endloop
 endfacet
 facet normal  0.000000e+00  0.000000e+00 -1.000000e+00
   outer loop
     vertex -2.871389e-03  6.626423e-03 -5.000000e-04
     vertex -2.589108e-03  6.223283e-03 -5.000000e-04
     vertex -2.541799e-03  6.109069e-03 -5.000000e-04
   endloop
 endfacet
 facet normal  0.000000e+00  0.000000e+00 -1.000000e+00
   outer loop
     vertex -2.871389e-03  6.626423e-03 -5.000000e-04
     vertex -2.646190e-03  6.332938e-03 -5.000000e-04
     vertex -2.589108e-03  6.223283e-03 -5.000000e-04
   endloop
 endfacet
 facet normal  0.000000e+00  0.000000e+00 -1.000000e+00
   outer loop
     vertex -2.871389e-03  6.626423e-03 -5.000000e-04
     vertex -2.712613e-03  6.437201e-03 -5.000000e-04
     vertex -2.646190e-03  6.332938e-03 -5.000000e-04
   endloop
 endfacet
 facet normal  0.000000e+00  0.000000e+00 -1.000000e+00
   outer loop
     vertex -2.871389e-03  6.626423e-03 -5.000000e-04
     vertex -2.787871e-03  6.535278e-03 -5.000000e-04
     vertex -2.712613e-03  6.437201e-03 -5.000000e-04
   endloop
 endfacet
 facet normal  0.000000e+00  0.000000e+00 -1.000000e+00
   outer loop
     vertex -2.871389e-03  6.626423e-03 -5.000000e-04
     vertex -3.060611e-03  6.785199e-03 -5.000000e-04
     vertex -2.962534e-03  6.709942e-03 -5.000000e-04
   endloop
 endfacet
 facet normal  0.000000e+00  0.000000e+00 -1.000000e+00
   outer loop
     vertex -2.871389e-03  6.626423e-03 -5.000000e-04
     vertex -3.164874e-03  6.851622e-03 -5.000000e-04
     vertex -3.060611e-03  6.785199e-03 -5.000000e-04
   endloop
 endfacet
 facet normal  0.000000e+00  0.000000e+00 -1.000000e+00
   outer loop
     vertex -2.871389e-03  6.626423e-03 -5.000000e-04
     vertex -3.274530e-03  6.908705e-03 -5.000000e-04
     vertex -3.164874e-03  6.851622e-03 -5.000000e-04
   endloop
 endfacet
 facet normal  0.000000e+00  0.000000e+00 -1.000000e+00
   outer loop
     vertex -2.871389e-03  6.626423e-03 -5.000000e-04
     vertex -3.388743e-03  6.956013e-03 -5.000000e-04
     vertex -3.274530e-03  6.908705e-03 -5.000000e-04
   endloop
 endfacet
 facet normal  0.000000e+00  0.000000e+00 -1.000000e+00
   outer loop
     vertex -2.871389e-03  6.626423e-03 -5.000000e-04
     vertex -3.506645e-03  6.993188e-03 -5.000000e-04
     vertex -3.388743e-03  6.956013e-03 -5.000000e-04
   endloop
 endfacet
 facet normal  0.000000e+00  0.000000e+00 -1.000000e+00
   outer loop
     vertex -2.871389e-03  6.626423e-03 -5.000000e-04
     vertex -3.627338e-03  7.019945e-03 -5.000000e-04
     vertex -3.506645e-03  6.993188e-03 -5.000000e-04
   endloop
 endfacet
 facet normal  0.000000e+00  0.000000e+00 -1.000000e+00
   outer loop
     vertex -2.871389e-03  6.626423e-03 -5.000000e-04
     vertex -3.749904e-03  7.036081e-03 -5.000000e-04
     vertex -3.627338e-03  7.019945e-03 -5.000000e-04
   endloop
 endfacet
 facet normal  0.000000e+00  0.000000e+00 -1.000000e+00
   outer loop
     vertex -2.871389e-03  6.626423e-03 -5.000000e-04
     vertex -3.873409e-03  7.041473e-03 -5.000000e-04
     vertex -3.749904e-03  7.036081e-03 -5.000000e-04
   endloop
 endfacet
 facet normal  0.000000e+00  0.000000e+00 -1.000000e+00
   outer loop
     vertex -2.871389e-03  6.626423e-03 -5.000000e-04
     vertex -3.996915e-03  7.036081e-03 -5.000000e-04
     vertex -3.873409e-03  7.041473e-03 -5.000000e-04
   endloop
 endfacet
 facet normal  0.000000e+00  0.000000e+00 -1.000000e+00
   outer loop
     vertex -2.871389e-03  6.626423e-03 -5.000000e-04
     vertex -4.119481e-03  7.019945e-03 -5.000000e-04
     vertex -3.996915e-03  7.036081e-03 -5.000000e-04
   endloop
 endfacet
 facet normal  0.000000e+00  0.000000e+00 -1.000000e+00
   outer loop
     vertex -2.871389e-03  6.626423e-03 -5.000000e-04
     vertex -4.240174e-03  6.993188e-03 -5.000000e-04
     vertex -4.119481e-03  7.019945e-03 -5.000000e-04
   endloop
 endfacet
 facet normal  0.000000e+00  0.000000e+00 -1.000000e+00
   outer loop
     vertex -2.871389e-03  6.626423e-03 -5.000000e-04
     vertex -4.358076e-03  6.956013e-03 -5.000000e-04
     vertex -4.240174e-03  6.993188e-03 -5.000000e-04
   endloop
 endfacet
 facet normal  0.000000e+00  0.000000e+00 -1.000000e+00
   outer loop
     vertex -2.871389e-03  6.626423e-03 -5.000000e-04
     vertex -4.472289e-03  6.908705e-03 -5.000000e-04
     vertex -4.358076e-03  6.956013e-03 -5.000000e-04
   endloop
 endfacet
 facet normal  0.000000e+00  0.000000e+00 -1.000000e+00
   outer loop
     vertex -2.871389e-03  6.626423e-03 -5.000000e-04
     vertex -4.581945e-03  6.851622e-03 -5.000000e-04
     vertex -4.472289e-03  6.908705e-03 -5.000000e-04
   endloop
 endfacet
 facet normal  0.000000e+00  0.000000e+00 -1.000000e+00
   outer loop
     vertex -2.871389e-03  6.626423e-03 -5.000000e-04
     vertex -4.686208e-03  6.785199e-03 -5.000000e-04
     vertex -4.581945e-03  6.851622e-03 -5.000000e-04
   endloop
 endfacet
 facet normal  0.000000e+00  0.000000e+00 -1.000000e+00
   outer loop
     vertex -2.871389e-03  6.626423e-03 -5.000000e-04
     vertex -4.784285e-03  6.709942e-03 -5.000000e-04
     vertex -4.686208e-03  6.785199e-03 -5.000000e-04
   endloop
 endfacet
 facet normal  0.000000e+00  0.000000e+00 -1.000000e+00
   outer loop
     vertex -2.871389e-03  6.626423e-03 -5.000000e-04
     vertex -4.875430e-03  6.626423e-03 -5.000000e-04
     vertex -4.784285e-03  6.709942e-03 -5.000000e-04
   endloop
 endfacet
 facet normal -0.000000e+00  0.000000e+00 -1.000000e+00
   outer loop
     vertex -2.871389e-03  6.626423e-03 -5.000000e-04
     vertex -4.958948e-03  6.535278e-03 -5.000000e-04
     vertex -4.875430e-03  6.626423e-03 -5.000000e-04
   endloop
 endfacet
 facet normal  0.000000e+00  0.000000e+00 -1.000000e+00
   outer loop
     vertex -2.871389e-03  6.626423e-03 -5.000000e-04
     vertex -5.034206e-03  6.437201e-03 -5.000000e-04
     vertex -4.958948e-03  6.535278e-03 -5.000000e-04
   endloop
 endfacet
 facet normal  0.000000e+00  0.000000e+00 -1.000000e+00
   outer loop
     vertex -2.871389e-03  6.626423e-03 -5.000000e-04
     vertex -5.100628e-03  6.332938e-03 -5.000000e-04
     vertex -5.034206e-03  6.437201e-03 -5.000000e-04
   endloop
 endfacet
 facet normal  0.000000e+00  0.000000e+00 -1.000000e+00
   outer loop
     vertex -2.871389e-03  6.626423e-03 -5.000000e-04
     vertex -5.157711e-03  6.223283e-03 -5.000000e-04
     vertex -5.100628e-03  6.332938e-03 -5.000000e-04
   endloop
 endfacet
 facet normal  0.000000e+00  0.000000e+00 -1.000000e+00
   outer loop
     vertex -2.871389e-03  6.626423e-03 -5.000000e-04
     vertex -5.205020e-03  6.109069e-03 -5.000000e-04
     vertex -5.157711e-03  6.223283e-03 -5.000000e-04
   endloop
 endfacet
 facet normal  0.000000e+00  0.000000e+00 -1.000000e+00
   outer loop
     vertex -2.871389e-03  6.626423e-03 -5.000000e-04
     vertex -5.242194e-03  5.991168e-03 -5.000000e-04
     vertex -5.205020e-03  6.109069e-03 -5.000000e-04
   endloop
 endfacet
 facet normal  0.000000e+00  0.000000e+00 -1.000000e+00
   outer loop
     vertex -2.871389e-03  6.626423e-03 -5.000000e-04
     vertex -5.268951e-03  5.870475e-03 -5.000000e-04
     vertex -5.242194e-03  5.991168e-03 -5.000000e-04
   endloop
 endfacet
 facet normal  0.000000e+00  0.000000e+00 -1.000000e+00
   outer loop
     vertex -2.871389e-03  6.626423e-03 -5.000000e-04
     vertex -5.285088e-03  5.747909e-03 -5.000000e-04
     vertex -5.268951e-03  5.870475e-03 -5.000000e-04
   endloop
 endfacet
 facet normal  0.000000e+00  0.000000e+00 -1.000000e+00
   outer loop
     vertex -2.871389e-03  6.626423e-03 -5.000000e-04
     vertex -5.290480e-03  5.624403e-03 -5.000000e-04
     vertex -5.285088e-03  5.747909e-03 -5.000000e-04
   endloop
 endfacet
 facet normal  9.990482e-01  4.361939e-02  0.000000e+00
   outer loop
     vertex -2.461731e-03  5.747909e-03  0.000000e+00
     vertex -2.456339e-03  5.624403e-03 -5.000000e-04
     vertex -2.461731e-03  5.747909e-03 -5.000000e-04
   endloop
 endfacet
 facet normal  9.990482e-01  4.361939e-02  0.000000e+00
   outer loop
     vertex -2.461731e-03  5.747909e-03  0.000000e+00
     vertex -2.456339e-03  5.624403e-03  0.000000e+00
     vertex -2.456339e-03  5.624403e-03 -5.000000e-04
   endloop
 endfacet
 facet normal  9.914449e-01  1.305262e-01  0.000000e+00
   outer loop
     vertex -2.477868e-03  5.870475e-03  0.000000e+00
     vertex -2.461731e-03  5.747909e-03 -5.000000e-04
     vertex -2.477868e-03  5.870475e-03 -5.000000e-04
   endloop
 endfacet
 facet normal  9.914449e-01  1.305262e-01  0.000000e+00
   outer loop
     vertex -2.477868e-03  5.870475e-03  0.000000e+00
     vertex -2.461731e-03  5.747909e-03  0.000000e+00
     vertex -2.461731e-03  5.747909e-03 -5.000000e-04
   endloop
 endfacet
 facet normal  9.762960e-01  2.164396e-01  0.000000e+00
   outer loop
     vertex -2.504625e-03  5.991168e-03  0.000000e+00
     vertex -2.477868e-03  5.870475e-03 -5.000000e-04
     vertex -2.504625e-03  5.991168e-03 -5.000000e-04
   endloop
 endfacet
 facet normal  9.762960e-01  2.164396e-01  0.000000e+00
   outer loop
     vertex -2.504625e-03  5.991168e-03  0.000000e+00
     vertex -2.477868e-03  5.870475e-03  0.000000e+00
     vertex -2.477868e-03  5.870475e-03 -5.000000e-04
   endloop
 endfacet
 facet normal  9.537170e-01  3.007058e-01  0.000000e+00
   outer loop
     vertex -2.541799e-03  6.109069e-03  0.000000e+00
     vertex -2.504625e-03  5.991168e-03 -5.000000e-04
     vertex -2.541799e-03  6.109069e-03 -5.000000e-04
   endloop
 endfacet
 facet normal  9.537170e-01  3.007058e-01  0.000000e+00
   outer loop
     vertex -2.541799e-03  6.109069e-03  0.000000e+00
     vertex -2.504625e-03  5.991168e-03  0.000000e+00
     vertex -2.504625e-03  5.991168e-03 -5.000000e-04
   endloop
 endfacet
 facet normal  9.238795e-01  3.826834e-01  0.000000e+00
   outer loop
     vertex -2.589108e-03  6.223283e-03  0.000000e+00
     vertex -2.541799e-03  6.109069e-03 -5.000000e-04
     vertex -2.589108e-03  6.223283e-03 -5.000000e-04
   endloop
 endfacet
 facet normal  9.238795e-01  3.826834e-01  0.000000e+00
   outer loop
     vertex -2.589108e-03  6.223283e-03  0.000000e+00
     vertex -2.541799e-03  6.109069e-03  0.000000e+00
     vertex -2.541799e-03  6.109069e-03 -5.000000e-04
   endloop
 endfacet
 facet normal  8.870108e-01  4.617486e-01  0.000000e+00
   outer loop
     vertex -2.646190e-03  6.332938e-03  0.000000e+00
     vertex -2.589108e-03  6.223283e-03  0.000000e+00
     vertex -2.589108e-03  6.223283e-03 -5.000000e-04
   endloop
 endfacet
 facet normal  8.870108e-01  4.617486e-01  0.000000e+00
   outer loop
     vertex -2.646190e-03  6.332938e-03  0.000000e+00
     vertex -2.589108e-03  6.223283e-03 -5.000000e-04
     vertex -2.646190e-03  6.332938e-03 -5.000000e-04
   endloop
 endfacet
 facet normal  8.433914e-01  5.372996e-01  0.000000e+00
   outer loop
     vertex -2.712613e-03  6.437201e-03  0.000000e+00
     vertex -2.646190e-03  6.332938e-03 -5.000000e-04
     vertex -2.712613e-03  6.437201e-03 -5.000000e-04
   endloop
 endfacet
 facet normal  8.433914e-01  5.372996e-01  0.000000e+00
   outer loop
     vertex -2.712613e-03  6.437201e-03  0.000000e+00
     vertex -2.646190e-03  6.332938e-03  0.000000e+00
     vertex -2.646190e-03  6.332938e-03 -5.000000e-04
   endloop
 endfacet
 facet normal  7.933533e-01  6.087614e-01  0.000000e+00
   outer loop
     vertex -2.787871e-03  6.535278e-03  0.000000e+00
     vertex -2.712613e-03  6.437201e-03 -5.000000e-04
     vertex -2.787871e-03  6.535278e-03 -5.000000e-04
   endloop
 endfacet
 facet normal  7.933533e-01  6.087614e-01  0.000000e+00
   outer loop
     vertex -2.787871e-03  6.535278e-03  0.000000e+00
     vertex -2.712613e-03  6.437201e-03  0.000000e+00
     vertex -2.712613e-03  6.437201e-03 -5.000000e-04
   endloop
 endfacet
 facet normal  7.372773e-01  6.755902e-01  0.000000e+00
   outer loop
     vertex -2.871389e-03  6.626423e-03  0.000000e+00
     vertex -2.787871e-03  6.535278e-03 -5.000000e-04
     vertex -2.871389e-03  6.626423e-03 -5.000000e-04
   endloop
 endfacet
 facet normal  7.372773e-01  6.755902e-01  0.000000e+00
   outer loop
     vertex -2.871389e-03  6.626423e-03  0.000000e+00
     vertex -2.787871e-03  6.535278e-03  0.000000e+00
     vertex -2.787871e-03  6.535278e-03 -5.000000e-04
   endloop
 endfacet
 facet normal  6.755902e-01  7.372773e-01  0.000000e+00
   outer loop
     vertex -2.962534e-03  6.709942e-03  0.000000e+00
     vertex -2.871389e-03  6.626423e-03  0.000000e+00
     vertex -2.871389e-03  6.626423e-03 -5.000000e-04
   endloop
 endfacet
 facet normal  6.755902e-01  7.372773e-01  0.000000e+00
   outer loop
     vertex -2.962534e-03  6.709942e-03  0.000000e+00
     vertex -2.871389e-03  6.626423e-03 -5.000000e-04
     vertex -2.962534e-03  6.709942e-03 -5.000000e-04
   endloop
 endfacet
 facet normal  6.087614e-01  7.933533e-01  0.000000e+00
   outer loop
     vertex -3.060611e-03  6.785199e-03  0.000000e+00
     vertex -2.962534e-03  6.709942e-03 -5.000000e-04
     vertex -3.060611e-03  6.785199e-03 -5.000000e-04
   endloop
 endfacet
 facet normal  6.087614e-01  7.933533e-01  0.000000e+00
   outer loop
     vertex -3.060611e-03  6.785199e-03  0.000000e+00
     vertex -2.962534e-03  6.709942e-03  0.000000e+00
     vertex -2.962534e-03  6.709942e-03 -5.000000e-04
   endloop
 endfacet
 facet normal  5.372996e-01  8.433914e-01  0.000000e+00
   outer loop
     vertex -3.164874e-03  6.851622e-03  0.000000e+00
     vertex -3.060611e-03  6.785199e-03 -5.000000e-04
     vertex -3.164874e-03  6.851622e-03 -5.000000e-04
   endloop
 endfacet
 facet normal  5.372996e-01  8.433914e-01  0.000000e+00
   outer loop
     vertex -3.164874e-03  6.851622e-03  0.000000e+00
     vertex -3.060611e-03  6.785199e-03  0.000000e+00
     vertex -3.060611e-03  6.785199e-03 -5.000000e-04
   endloop
 endfacet
 facet normal  4.617486e-01  8.870108e-01  0.000000e+00
   outer loop
     vertex -3.274530e-03  6.908705e-03  0.000000e+00
     vertex -3.164874e-03  6.851622e-03 -5.000000e-04
     vertex -3.274530e-03  6.908705e-03 -5.000000e-04
   endloop
 endfacet
 facet normal  4.617486e-01  8.870108e-01  0.000000e+00
   outer loop
     vertex -3.274530e-03  6.908705e-03  0.000000e+00
     vertex -3.164874e-03  6.851622e-03  0.000000e+00
     vertex -3.164874e-03  6.851622e-03 -5.000000e-04
   endloop
 endfacet
 facet normal  3.826834e-01  9.238795e-01  0.000000e+00
   outer loop
     vertex -3.388743e-03  6.956013e-03  0.000000e+00
     vertex -3.274530e-03  6.908705e-03 -5.000000e-04
     vertex -3.388743e-03  6.956013e-03 -5.000000e-04
   endloop
 endfacet
 facet normal  3.826834e-01  9.238795e-01  0.000000e+00
   outer loop
     vertex -3.388743e-03  6.956013e-03  0.000000e+00
     vertex -3.274530e-03  6.908705e-03  0.000000e+00
     vertex -3.274530e-03  6.908705e-03 -5.000000e-04
   endloop
 endfacet
 facet normal  3.007058e-01  9.537170e-01  0.000000e+00
   outer loop
     vertex -3.506645e-03  6.993188e-03  0.000000e+00
     vertex -3.388743e-03  6.956013e-03 -5.000000e-04
     vertex -3.506645e-03  6.993188e-03 -5.000000e-04
   endloop
 endfacet
 facet normal  3.007058e-01  9.537170e-01  0.000000e+00
   outer loop
     vertex -3.506645e-03  6.993188e-03  0.000000e+00
     vertex -3.388743e-03  6.956013e-03  0.000000e+00
     vertex -3.388743e-03  6.956013e-03 -5.000000e-04
   endloop
 endfacet
 facet normal  2.164396e-01  9.762960e-01  0.000000e+00
   outer loop
     vertex -3.627338e-03  7.019945e-03  0.000000e+00
     vertex -3.506645e-03  6.993188e-03 -5.000000e-04
     vertex -3.627338e-03  7.019945e-03 -5.000000e-04
   endloop
 endfacet
 facet normal  2.164396e-01  9.762960e-01  0.000000e+00
   outer loop
     vertex -3.627338e-03  7.019945e-03  0.000000e+00
     vertex -3.506645e-03  6.993188e-03  0.000000e+00
     vertex -3.506645e-03  6.993188e-03 -5.000000e-04
   endloop
 endfacet
 facet normal  1.305262e-01  9.914449e-01  0.000000e+00
   outer loop
     vertex -3.749904e-03  7.036081e-03  0.000000e+00
     vertex -3.627338e-03  7.019945e-03 -5.000000e-04
     vertex -3.749904e-03  7.036081e-03 -5.000000e-04
   endloop
 endfacet
 facet normal  1.305262e-01  9.914449e-01  0.000000e+00
   outer loop
     vertex -3.749904e-03  7.036081e-03  0.000000e+00
     vertex -3.627338e-03  7.019945e-03  0.000000e+00
     vertex -3.627338e-03  7.019945e-03 -5.000000e-04
   endloop
 endfacet
 facet normal  4.361939e-02  9.990482e-01  0.000000e+00
   outer loop
     vertex -3.873409e-03  7.041473e-03  0.000000e+00
     vertex -3.749904e-03  7.036081e-03 -5.000000e-04
     vertex -3.873409e-03  7.041473e-03 -5.000000e-04
   endloop
 endfacet
 facet normal  4.361939e-02  9.990482e-01  0.000000e+00
   outer loop
     vertex -3.873409e-03  7.041473e-03  0.000000e+00
     vertex -3.749904e-03  7.036081e-03  0.000000e+00
     vertex -3.749904e-03  7.036081e-03 -5.000000e-04
   endloop
 endfacet
 facet normal -4.361939e-02  9.990482e-01  0.000000e+00
   outer loop
     vertex -3.996915e-03  7.036081e-03  0.000000e+00
     vertex -3.873409e-03  7.041473e-03 -5.000000e-04
     vertex -3.996915e-03  7.036081e-03 -5.000000e-04
   endloop
 endfacet
 facet normal -4.361939e-02  9.990482e-01  0.000000e+00
   outer loop
     vertex -3.996915e-03  7.036081e-03  0.000000e+00
     vertex -3.873409e-03  7.041473e-03  0.000000e+00
     vertex -3.873409e-03  7.041473e-03 -5.000000e-04
   endloop
 endfacet
 facet normal -1.305262e-01  9.914449e-01  0.000000e+00
   outer loop
     vertex -4.119481e-03  7.019945e-03  0.000000e+00
     vertex -3.996915e-03  7.036081e-03 -5.000000e-04
     vertex -4.119481e-03  7.019945e-03 -5.000000e-04
   endloop
 endfacet
 facet normal -1.305262e-01  9.914449e-01  0.000000e+00
   outer loop
     vertex -4.119481e-03  7.019945e-03  0.000000e+00
     vertex -3.996915e-03  7.036081e-03  0.000000e+00
     vertex -3.996915e-03  7.036081e-03 -5.000000e-04
   endloop
 endfacet
 facet normal -2.164396e-01  9.762960e-01  0.000000e+00
   outer loop
     vertex -4.240174e-03  6.993188e-03  0.000000e+00
     vertex -4.119481e-03  7.019945e-03 -5.000000e-04
     vertex -4.240174e-03  6.993188e-03 -5.000000e-04
   endloop
 endfacet
 facet normal -2.164396e-01  9.762960e-01  0.000000e+00
   outer loop
     vertex -4.240174e-03  6.993188e-03  0.000000e+00
     vertex -4.119481e-03  7.019945e-03  0.000000e+00
     vertex -4.119481e-03  7.019945e-03 -5.000000e-04
   endloop
 endfacet
 facet normal -3.007058e-01  9.537170e-01  0.000000e+00
   outer loop
     vertex -4.358076e-03  6.956013e-03  0.000000e+00
     vertex -4.240174e-03  6.993188e-03 -5.000000e-04
     vertex -4.358076e-03  6.956013e-03 -5.000000e-04
   endloop
 endfacet
 facet normal -3.007058e-01  9.537170e-01  0.000000e+00
   outer loop
     vertex -4.358076e-03  6.956013e-03  0.000000e+00
     vertex -4.240174e-03  6.993188e-03  0.000000e+00
     vertex -4.240174e-03  6.993188e-03 -5.000000e-04
   endloop
 endfacet
 facet normal -3.826834e-01  9.238795e-01  0.000000e+00
   outer loop
     vertex -4.472289e-03  6.908705e-03  0.000000e+00
     vertex -4.358076e-03  6.956013e-03 -5.000000e-04
     vertex -4.472289e-03  6.908705e-03 -5.000000e-04
   endloop
 endfacet
 facet normal -3.826834e-01  9.238795e-01  0.000000e+00
   outer loop
     vertex -4.472289e-03  6.908705e-03  0.000000e+00
     vertex -4.358076e-03  6.956013e-03  0.000000e+00
     vertex -4.358076e-03  6.956013e-03 -5.000000e-04
   endloop
 endfacet
 facet normal -4.617486e-01  8.870108e-01  0.000000e+00
   outer loop
     vertex -4.581945e-03  6.851622e-03  0.000000e+00
     vertex -4.472289e-03  6.908705e-03 -5.000000e-04
     vertex -4.581945e-03  6.851622e-03 -5.000000e-04
   endloop
 endfacet
 facet normal -4.617486e-01  8.870108e-01  0.000000e+00
   outer loop
     vertex -4.581945e-03  6.851622e-03  0.000000e+00
     vertex -4.472289e-03  6.908705e-03  0.000000e+00
     vertex -4.472289e-03  6.908705e-03 -5.000000e-04
   endloop
 endfacet
 facet normal -5.372996e-01  8.433914e-01  0.000000e+00
   outer loop
     vertex -4.686208e-03  6.785199e-03  0.000000e+00
     vertex -4.581945e-03  6.851622e-03 -5.000000e-04
     vertex -4.686208e-03  6.785199e-03 -5.000000e-04
   endloop
 endfacet
 facet normal -5.372996e-01  8.433914e-01  0.000000e+00
   outer loop
     vertex -4.686208e-03  6.785199e-03  0.000000e+00
     vertex -4.581945e-03  6.851622e-03  0.000000e+00
     vertex -4.581945e-03  6.851622e-03 -5.000000e-04
   endloop
 endfacet
 facet normal -6.087614e-01  7.933533e-01  0.000000e+00
   outer loop
     vertex -4.784285e-03  6.709942e-03  0.000000e+00
     vertex -4.686208e-03  6.785199e-03 -5.000000e-04
     vertex -4.784285e-03  6.709942e-03 -5.000000e-04
   endloop
 endfacet
 facet normal -6.087614e-01  7.933533e-01  0.000000e+00
   outer loop
     vertex -4.784285e-03  6.709942e-03  0.000000e+00
     vertex -4.686208e-03  6.785199e-03  0.000000e+00
     vertex -4.686208e-03  6.785199e-03 -5.000000e-04
   endloop
 endfacet
 facet normal -6.755902e-01  7.372773e-01  0.000000e+00
   outer loop
     vertex -4.875430e-03  6.626423e-03  0.000000e+00
     vertex -4.784285e-03  6.709942e-03 -5.000000e-04
     vertex -4.875430e-03  6.626423e-03 -5.000000e-04
   endloop
 endfacet
 facet normal -6.755902e-01  7.372773e-01  0.000000e+00
   outer loop
     vertex -4.875430e-03  6.626423e-03  0.000000e+00
     vertex -4.784285e-03  6.709942e-03  0.000000e+00
     vertex -4.784285e-03  6.709942e-03 -5.000000e-04
   endloop
 endfacet
 facet normal -7.372773e-01  6.755902e-01  0.000000e+00
   outer loop
     vertex -4.958948e-03  6.535278e-03  0.000000e+00
     vertex -4.875430e-03  6.626423e-03 -5.000000e-04
     vertex -4.958948e-03  6.535278e-03 -5.000000e-04
   endloop
 endfacet
 facet normal -7.372773e-01  6.755902e-01  0.000000e+00
   outer loop
     vertex -4.958948e-03  6.535278e-03  0.000000e+00
     vertex -4.875430e-03  6.626423e-03  0.000000e+00
     vertex -4.875430e-03  6.626423e-03 -5.000000e-04
   endloop
 endfacet
 facet normal -7.933533e-01  6.087614e-01  0.000000e+00
   outer loop
     vertex -5.034206e-03  6.437201e-03  0.000000e+00
     vertex -4.958948e-03  6.535278e-03 -5.000000e-04
     vertex -5.034206e-03  6.437201e-03 -5.000000e-04
   endloop
 endfacet
 facet normal -7.933533e-01  6.087614e-01  0.000000e+00
   outer loop
     vertex -5.034206e-03  6.437201e-03  0.000000e+00
     vertex -4.958948e-03  6.535278e-03  0.000000e+00
     vertex -4.958948e-03  6.535278e-03 -5.000000e-04
   endloop
 endfacet
 facet normal -8.433914e-01  5.372996e-01  0.000000e+00
   outer loop
     vertex -5.100628e-03  6.332938e-03  0.000000e+00
     vertex -5.034206e-03  6.437201e-03 -5.000000e-04
     vertex -5.100628e-03  6.332938e-03 -5.000000e-04
   endloop
 endfacet
 facet normal -8.433914e-01  5.372996e-01  0.000000e+00
   outer loop
     vertex -5.100628e-03  6.332938e-03  0.000000e+00
     vertex -5.034206e-03  6.437201e-03  0.000000e+00
     vertex -5.034206e-03  6.437201e-03 -5.000000e-04
   endloop
 endfacet
 facet normal -8.870108e-01  4.617486e-01  0.000000e+00
   outer loop
     vertex -5.157711e-03  6.223283e-03  0.000000e+00
     vertex -5.100628e-03  6.332938e-03 -5.000000e-04
     vertex -5.157711e-03  6.223283e-03 -5.000000e-04
   endloop
 endfacet
 facet normal -8.870108e-01  4.617486e-01  0.000000e+00
   outer loop
     vertex -5.157711e-03  6.223283e-03  0.000000e+00
     vertex -5.100628e-03  6.332938e-03  0.000000e+00
     vertex -5.100628e-03  6.332938e-03 -5.000000e-04
   endloop
 endfacet
 facet normal -9.238795e-01  3.826834e-01  0.000000e+00
   outer loop
     vertex -5.205020e-03  6.109069e-03  0.000000e+00
     vertex -5.157711e-03  6.223283e-03  0.000000e+00
     vertex -5.157711e-03  6.223283e-03 -5.000000e-04
   endloop
 endfacet
 facet normal -9.238795e-01  3.826834e-01  0.000000e+00
   outer loop
     vertex -5.205020e-03  6.109069e-03  0.000000e+00
     vertex -5.157711e-03  6.223283e-03 -5.000000e-04
     vertex -5.205020e-03  6.109069e-03 -5.000000e-04
   endloop
 endfacet
 facet normal -9.537170e-01  3.007058e-01  0.000000e+00
   outer loop
     vertex -5.242194e-03  5.991168e-03  0.000000e+00
     vertex -5.205020e-03  6.109069e-03  0.000000e+00
     vertex -5.205020e-03  6.109069e-03 -5.000000e-04
   endloop
 endfacet
 facet normal -9.537170e-01  3.007058e-01  0.000000e+00
   outer loop
     vertex -5.242194e-03  5.991168e-03  0.000000e+00
     vertex -5.205020e-03  6.109069e-03 -5.000000e-04
     vertex -5.242194e-03  5.991168e-03 -5.000000e-04
   endloop
 endfacet
 facet normal -9.762960e-01  2.164396e-01  0.000000e+00
   outer loop
     vertex -5.268951e-03  5.870475e-03  0.000000e+00
     vertex -5.242194e-03  5.991168e-03  0.000000e+00
     vertex -5.242194e-03  5.991168e-03 -5.000000e-04
   endloop
 endfacet
 facet normal -9.762960e-01  2.164396e-01  0.000000e+00
   outer loop
     vertex -5.268951e-03  5.870475e-03  0.000000e+00
     vertex -5.242194e-03  5.991168e-03 -5.000000e-04
     vertex -5.268951e-03  5.870475e-03 -5.000000e-04
   endloop
 endfacet
 facet normal -9.914449e-01  1.305262e-01  0.000000e+00
   outer loop
     vertex -5.285088e-03  5.747909e-03  0.000000e+00
     vertex -5.268951e-03  5.870475e-03  0.000000e+00
     vertex -5.268951e-03  5.870475e-03 -5.000000e-04
   endloop
 endfacet
 facet normal -9.914449e-01  1.305262e-01  0.000000e+00
   outer loop
     vertex -5.285088e-03  5.747909e-03  0.000000e+00
     vertex -5.268951e-03  5.870475e-03 -5.000000e-04
     vertex -5.285088e-03  5.747909e-03 -5.000000e-04
   endloop
 endfacet
 facet normal -9.990482e-01  4.361939e-02  0.000000e+00
   outer loop
     vertex -5.290480e-03  5.624403e-03  0.000000e+00
     vertex -5.285088e-03  5.747909e-03  0.000000e+00
     vertex -5.285088e-03  5.747909e-03 -5.000000e-04
   endloop
 endfacet
 facet normal -9.990482e-01  4.361939e-02  0.000000e+00
   outer loop
     vertex -5.290480e-03  5.624403e-03  0.000000e+00
     vertex -5.285088e-03  5.747909e-03 -5.000000e-04
     vertex -5.290480e-03  5.624403e-03 -5.000000e-04
   endloop
 endfacet
 facet normal -9.990482e-01 -4.361939e-02  0.000000e+00
   outer loop
     vertex -5.285088e-03  5.500897e-03  0.000000e+00
     vertex -5.290480e-03  5.624403e-03  0.000000e+00
     vertex -5.290480e-03  5.624403e-03 -5.000000e-04
   endloop
 endfacet
 facet normal -9.990482e-01 -4.361939e-02 -0.000000e+00
   outer loop
     vertex -5.285088e-03  5.500897e-03  0.000000e+00
     vertex -5.290480e-03  5.624403e-03 -5.000000e-04
     vertex -5.285088e-03  5.500897e-03 -5.000000e-04
   endloop
 endfacet
 facet normal -9.914449e-01 -1.305262e-01 -0.000000e+00
   outer loop
     vertex -5.268951e-03  5.378331e-03  0.000000e+00
     vertex -5.285088e-03  5.500897e-03 -5.000000e-04
     vertex -5.268951e-03  5.378331e-03 -5.000000e-04
   endloop
 endfacet
 facet normal -9.914449e-01 -1.305262e-01  0.000000e+00
   outer loop
     vertex -5.268951e-03  5.378331e-03  0.000000e+00
     vertex -5.285088e-03  5.500897e-03  0.000000e+00
     vertex -5.285088e-03  5.500897e-03 -5.000000e-04
   endloop
 endfacet
 facet normal -9.762960e-01 -2.164396e-01 -0.000000e+00
   outer loop
     vertex -5.242194e-03  5.257638e-03  0.000000e+00
     vertex -5.268951e-03  5.378331e-03 -5.000000e-04
     vertex -5.242194e-03  5.257638e-03 -5.000000e-04
   endloop
 endfacet
 facet normal -9.762960e-01 -2.164396e-01  0.000000e+00
   outer loop
     vertex -5.242194e-03  5.257638e-03  0.000000e+00
     vertex -5.268951e-03  5.378331e-03  0.000000e+00
     vertex -5.268951e-03  5.378331e-03 -5.000000e-04
   endloop
 endfacet
 facet normal -9.537170e-01 -3.007058e-01 -0.000000e+00
   outer loop
     vertex -5.205020e-03  5.139736e-03  0.000000e+00
     vertex -5.242194e-03  5.257638e-03 -5.000000e-04
     vertex -5.205020e-03  5.139736e-03 -5.000000e-04
   endloop
 endfacet
 facet normal -9.537170e-01 -3.007058e-01  0.000000e+00
   outer loop
     vertex -5.205020e-03  5.139736e-03  0.000000e+00
     vertex -5.242194e-03  5.257638e-03  0.000000e+00
     vertex -5.242194e-03  5.257638e-03 -5.000000e-04
   endloop
 endfacet
 facet normal -9.238795e-01 -3.826834e-01 -0.000000e+00
   outer loop
     vertex -5.157711e-03  5.025523e-03  0.000000e+00
     vertex -5.205020e-03  5.139736e-03 -5.000000e-04
     vertex -5.157711e-03  5.025523e-03 -5.000000e-04
   endloop
 endfacet
 facet normal -9.238795e-01 -3.826834e-01  0.000000e+00
   outer loop
     vertex -5.157711e-03  5.025523e-03  0.000000e+00
     vertex -5.205020e-03  5.139736e-03  0.000000e+00
     vertex -5.205020e-03  5.139736e-03 -5.000000e-04
   endloop
 endfacet
 facet normal -8.870108e-01 -4.617486e-01  0.000000e+00
   outer loop
     vertex -5.100628e-03  4.915868e-03  0.000000e+00
     vertex -5.157711e-03  5.025523e-03  0.000000e+00
     vertex -5.157711e-03  5.025523e-03 -5.000000e-04
   endloop
 endfacet
 facet normal -8.870108e-01 -4.617486e-01 -0.000000e+00
   outer loop
     vertex -5.100628e-03  4.915868e-03  0.000000e+00
     vertex -5.157711e-03  5.025523e-03 -5.000000e-04
     vertex -5.100628e-03  4.915868e-03 -5.000000e-04
   endloop
 endfacet
 facet normal -8.433914e-01 -5.372996e-01  0.000000e+00
   outer loop
     vertex -5.034206e-03  4.811605e-03  0.000000e+00
     vertex -5.100628e-03  4.915868e-03  0.000000e+00
     vertex -5.100628e-03  4.915868e-03 -5.000000e-04
   endloop
 endfacet
 facet normal -8.433914e-01 -5.372996e-01 -0.000000e+00
   outer loop
     vertex -5.034206e-03  4.811605e-03  0.000000e+00
     vertex -5.100628e-03  4.915868e-03 -5.000000e-04
     vertex -5.034206e-03  4.811605e-03 -5.000000e-04
   endloop
 endfacet
 facet normal -7.933533e-01 -6.087614e-01 -0.000000e+00
   outer loop
     vertex -4.958948e-03  4.713527e-03  0.000000e+00
     vertex -5.034206e-03  4.811605e-03 -5.000000e-04
     vertex -4.958948e-03  4.713527e-03 -5.000000e-04
   endloop
 endfacet
 facet normal -7.933533e-01 -6.087614e-01  0.000000e+00
   outer loop
     vertex -4.958948e-03  4.713527e-03  0.000000e+00
     vertex -5.034206e-03  4.811605e-03  0.000000e+00
     vertex -5.034206e-03  4.811605e-03 -5.000000e-04
   endloop
 endfacet
 facet normal -7.372773e-01 -6.755902e-01 -0.000000e+00
   outer loop
     vertex -4.875430e-03  4.622383e-03  0.000000e+00
     vertex -4.958948e-03  4.713527e-03 -5.000000e-04
     vertex -4.875430e-03  4.622383e-03 -5.000000e-04
   endloop
 endfacet
 facet normal -7.372773e-01 -6.755902e-01  0.000000e+00
   outer loop
     vertex -4.875430e-03  4.622383e-03  0.000000e+00
     vertex -4.958948e-03  4.713527e-03  0.000000e+00
     vertex -4.958948e-03  4.713527e-03 -5.000000e-04
   endloop
 endfacet
 facet normal -6.755902e-01 -7.372773e-01 -0.000000e+00
   outer loop
     vertex -4.784285e-03  4.538864e-03  0.000000e+00
     vertex -4.875430e-03  4.622383e-03 -5.000000e-04
     vertex -4.784285e-03  4.538864e-03 -5.000000e-04
   endloop
 endfacet
 facet normal -6.755902e-01 -7.372773e-01  0.000000e+00
   outer loop
     vertex -4.784285e-03  4.538864e-03  0.000000e+00
     vertex -4.875430e-03  4.622383e-03  0.000000e+00
     vertex -4.875430e-03  4.622383e-03 -5.000000e-04
   endloop
 endfacet
 facet normal -6.087614e-01 -7.933533e-01 -0.000000e+00
   outer loop
     vertex -4.686208e-03  4.463607e-03  0.000000e+00
     vertex -4.784285e-03  4.538864e-03 -5.000000e-04
     vertex -4.686208e-03  4.463607e-03 -5.000000e-04
   endloop
 endfacet
 facet normal -6.087614e-01 -7.933533e-01  0.000000e+00
   outer loop
     vertex -4.686208e-03  4.463607e-03  0.000000e+00
     vertex -4.784285e-03  4.538864e-03  0.000000e+00
     vertex -4.784285e-03  4.538864e-03 -5.000000e-04
   endloop
 endfacet
 facet normal -5.372996e-01 -8.433914e-01 -0.000000e+00
   outer loop
     vertex -4.581945e-03  4.397184e-03  0.000000e+00
     vertex -4.686208e-03  4.463607e-03 -5.000000e-04
     vertex -4.581945e-03  4.397184e-03 -5.000000e-04
   endloop
 endfacet
 facet normal -5.372996e-01 -8.433914e-01  0.000000e+00
   outer loop
     vertex -4.581945e-03  4.397184e-03  0.000000e+00
     vertex -4.686208e-03  4.463607e-03  0.000000e+00
     vertex -4.686208e-03  4.463607e-03 -5.000000e-04
   endloop
 endfacet
 facet normal -4.617486e-01 -8.870108e-01 -0.000000e+00
   outer loop
     vertex -4.472289e-03  4.340101e-03  0.000000e+00
     vertex -4.581945e-03  4.397184e-03 -5.000000e-04
     vertex -4.472289e-03  4.340101e-03 -5.000000e-04
   endloop
 endfacet
 facet normal -4.617486e-01 -8.870108e-01  0.000000e+00
   outer loop
     vertex -4.472289e-03  4.340101e-03  0.000000e+00
     vertex -4.581945e-03  4.397184e-03  0.000000e+00
     vertex -4.581945e-03  4.397184e-03 -5.000000e-04
   endloop
 endfacet
 facet normal -3.826834e-01 -9.238795e-01 -0.000000e+00
   outer loop
     vertex -4.358076e-03  4.292792e-03  0.000000e+00
     vertex -4.472289e-03  4.340101e-03 -5.000000e-04
     vertex -4.358076e-03  4.292792e-03 -5.000000e-04
   endloop
 endfacet
 facet normal -3.826834e-01 -9.238795e-01  0.000000e+00
   outer loop
     vertex -4.358076e-03  4.292792e-03  0.000000e+00
     vertex -4.472289e-03  4.340101e-03  0.000000e+00
     vertex -4.472289e-03  4.340101e-03 -5.000000e-04
   endloop
 endfacet
 facet normal -3.007058e-01 -9.537170e-01 -0.000000e+00
   outer loop
     vertex -4.240174e-03  4.255618e-03  0.000000e+00
     vertex -4.358076e-03  4.292792e-03 -5.000000e-04
     vertex -4.240174e-03  4.255618e-03 -5.000000e-04
   endloop
 endfacet
 facet normal -3.007058e-01 -9.537170e-01  0.000000e+00
   outer loop
     vertex -4.240174e-03  4.255618e-03  0.000000e+00
     vertex -4.358076e-03  4.292792e-03  0.000000e+00
     vertex -4.358076e-03  4.292792e-03 -5.000000e-04
   endloop
 endfacet
 facet normal -2.164396e-01 -9.762960e-01 -0.000000e+00
   outer loop
     vertex -4.119481e-03  4.228861e-03  0.000000e+00
     vertex -4.240174e-03  4.255618e-03 -5.000000e-04
     vertex -4.119481e-03  4.228861e-03 -5.000000e-04
   endloop
 endfacet
 facet normal -2.164396e-01 -9.762960e-01  0.000000e+00
   outer loop
     vertex -4.119481e-03  4.228861e-03  0.000000e+00
     vertex -4.240174e-03  4.255618e-03  0.000000e+00
     vertex -4.240174e-03  4.255618e-03 -5.000000e-04
   endloop
 endfacet
 facet normal -1.305262e-01 -9.914449e-01 -0.000000e+00
   outer loop
     vertex -3.996915e-03  4.212725e-03  0.000000e+00
     vertex -4.119481e-03  4.228861e-03 -5.000000e-04
     vertex -3.996915e-03  4.212725e-03 -5.000000e-04
   endloop
 endfacet
 facet normal -1.305262e-01 -9.914449e-01  0.000000e+00
   outer loop
     vertex -3.996915e-03  4.212725e-03  0.000000e+00
     vertex -4.119481e-03  4.228861e-03  0.000000e+00
     vertex -4.119481e-03  4.228861e-03 -5.000000e-04
   endloop
 endfacet
 facet normal -4.361939e-02 -9.990482e-01 -0.000000e+00
   outer loop
     vertex -3.873409e-03  4.207332e-03  0.000000e+00
     vertex -3.996915e-03  4.212725e-03 -5.000000e-04
     vertex -3.873409e-03  4.207332e-03 -5.000000e-04
   endloop
 endfacet
 facet normal -4.361939e-02 -9.990482e-01  0.000000e+00
   outer loop
     vertex -3.873409e-03  4.207332e-03  0.000000e+00
     vertex -3.996915e-03  4.212725e-03  0.000000e+00
     vertex -3.996915e-03  4.212725e-03 -5.000000e-04
   endloop
 endfacet
 facet normal  4.361939e-02 -9.990482e-01  0.000000e+00
   outer loop
     vertex -3.749904e-03  4.212725e-03  0.000000e+00
     vertex -3.873409e-03  4.207332e-03 -5.000000e-04
     vertex -3.749904e-03  4.212725e-03 -5.000000e-04
   endloop
 endfacet
 facet normal  4.361939e-02 -9.990482e-01  0.000000e+00
   outer loop
     vertex -3.749904e-03  4.212725e-03  0.000000e+00
     vertex -3.873409e-03  4.207332e-03  0.000000e+00
     vertex -3.873409e-03  4.207332e-03 -5.000000e-04
   endloop
 endfacet
 facet normal  1.305262e-01 -9.914449e-01  0.000000e+00
   outer loop
     vertex -3.627338e-03  4.228861e-03  0.000000e+00
     vertex -3.749904e-03  4.212725e-03 -5.000000e-04
     vertex -3.627338e-03  4.228861e-03 -5.000000e-04
   endloop
 endfacet
 facet normal  1.305262e-01 -9.914449e-01  0.000000e+00
   outer loop
     vertex -3.627338e-03  4.228861e-03  0.000000e+00
     vertex -3.749904e-03  4.212725e-03  0.000000e+00
     vertex -3.749904e-03  4.212725e-03 -5.000000e-04
   endloop
 endfacet
 facet normal  2.164396e-01 -9.762960e-01  0.000000e+00
   outer loop
     vertex -3.506645e-03  4.255618e-03  0.000000e+00
     vertex -3.627338e-03  4.228861e-03 -5.000000e-04
     vertex -3.506645e-03  4.255618e-03 -5.000000e-04
   endloop
 endfacet
 facet normal  2.164396e-01 -9.762960e-01  0.000000e+00
   outer loop
     vertex -3.506645e-03  4.255618e-03  0.000000e+00
     vertex -3.627338e-03  4.228861e-03  0.000000e+00
     vertex -3.627338e-03  4.228861e-03 -5.000000e-04
   endloop
 endfacet
 facet normal  3.007058e-01 -9.537170e-01  0.000000e+00
   outer loop
     vertex -3.388743e-03  4.292792e-03  0.000000e+00
     vertex -3.506645e-03  4.255618e-03 -5.000000e-04
     vertex -3.388743e-03  4.292792e-03 -5.000000e-04
   endloop
 endfacet
 facet normal  3.007058e-01 -9.537170e-01  0.000000e+00
   outer loop
     vertex -3.388743e-03  4.292792e-03  0.000000e+00
     vertex -3.506645e-03  4.255618e-03  0.000000e+00
     vertex -3.506645e-03  4.255618e-03 -5.000000e-04
   endloop
 endfacet
 facet normal  3.826834e-01 -9.238795e-01  0.000000e+00
   outer loop
     vertex -3.274530e-03  4.340101e-03  0.000000e+00
     vertex -3.388743e-03  4.292792e-03 -5.000000e-04
     vertex -3.274530e-03  4.340101e-03 -5.000000e-04
   endloop
 endfacet
 facet normal  3.826834e-01 -9.238795e-01  0.000000e+00
   outer loop
     vertex -3.274530e-03  4.340101e-03  0.000000e+00
     vertex -3.388743e-03  4.292792e-03  0.000000e+00
     vertex -3.388743e-03  4.292792e-03 -5.000000e-04
   endloop
 endfacet
 facet normal  4.617486e-01 -8.870108e-01  0.000000e+00
   outer loop
     vertex -3.164874e-03  4.397184e-03  0.000000e+00
     vertex -3.274530e-03  4.340101e-03 -5.000000e-04
     vertex -3.164874e-03  4.397184e-03 -5.000000e-04
   endloop
 endfacet
 facet normal  4.617486e-01 -8.870108e-01  0.000000e+00
   outer loop
     vertex -3.164874e-03  4.397184e-03  0.000000e+00
     vertex -3.274530e-03  4.340101e-03  0.000000e+00
     vertex -3.274530e-03  4.340101e-03 -5.000000e-04
   endloop
 endfacet
 facet normal  5.372996e-01 -8.433914e-01  0.000000e+00
   outer loop
     vertex -3.060611e-03  4.463607e-03  0.000000e+00
     vertex -3.164874e-03  4.397184e-03 -5.000000e-04
     vertex -3.060611e-03  4.463607e-03 -5.000000e-04
   endloop
 endfacet
 facet normal  5.372996e-01 -8.433914e-01  0.000000e+00
   outer loop
     vertex -3.060611e-03  4.463607e-03  0.000000e+00
     vertex -3.164874e-03  4.397184e-03  0.000000e+00
     vertex -3.164874e-03  4.397184e-03 -5.000000e-04
   endloop
 endfacet
 facet normal  6.087614e-01 -7.933533e-01  0.000000e+00
   outer loop
     vertex -2.962534e-03  4.538864e-03  0.000000e+00
     vertex -3.060611e-03  4.463607e-03 -5.000000e-04
     vertex -2.962534e-03  4.538864e-03 -5.000000e-04
   endloop
 endfacet
 facet normal  6.087614e-01 -7.933533e-01  0.000000e+00
   outer loop
     vertex -2.962534e-03  4.538864e-03  0.000000e+00
     vertex -3.060611e-03  4.463607e-03  0.000000e+00
     vertex -3.060611e-03  4.463607e-03 -5.000000e-04
   endloop
 endfacet
 facet normal  6.755902e-01 -7.372773e-01  0.000000e+00
   outer loop
     vertex -2.871389e-03  4.622383e-03  0.000000e+00
     vertex -2.962534e-03  4.538864e-03 -5.000000e-04
     vertex -2.871389e-03  4.622383e-03 -5.000000e-04
   endloop
 endfacet
 facet normal  6.755902e-01 -7.372773e-01  0.000000e+00
   outer loop
     vertex -2.871389e-03  4.622383e-03  0.000000e+00
     vertex -2.962534e-03  4.538864e-03  0.000000e+00
     vertex -2.962534e-03  4.538864e-03 -5.000000e-04
   endloop
 endfacet
 facet normal  7.372773e-01 -6.755902e-01  0.000000e+00
   outer loop
     vertex -2.787871e-03  4.713527e-03  0.000000e+00
     vertex -2.871389e-03  4.622383e-03 -5.000000e-04
     vertex -2.787871e-03  4.713527e-03 -5.000000e-04
   endloop
 endfacet
 facet normal  7.372773e-01 -6.755902e-01  0.000000e+00
   outer loop
     vertex -2.787871e-03  4.713527e-03  0.000000e+00
     vertex -2.871389e-03  4.622383e-03  0.000000e+00
     vertex -2.871389e-03  4.622383e-03 -5.000000e-04
   endloop
 endfacet
 facet normal  7.933533e-01 -6.087614e-01  0.000000e+00
   outer loop
     vertex -2.712613e-03  4.811605e-03  0.000000e+00
     vertex -2.787871e-03  4.713527e-03 -5.000000e-04
     vertex -2.712613e-03  4.811605e-03 -5.000000e-04
   endloop
 endfacet
 facet normal  7.933533e-01 -6.087614e-01  0.000000e+00
   outer loop
     vertex -2.712613e-03  4.811605e-03  0.000000e+00
     vertex -2.787871e-03  4.713527e-03  0.000000e+00
     vertex -2.787871e-03  4.713527e-03 -5.000000e-04
   endloop
 endfacet
 facet normal  8.433914e-01 -5.372996e-01  0.000000e+00
   outer loop
     vertex -2.646190e-03  4.915868e-03  0.000000e+00
     vertex -2.712613e-03  4.811605e-03 -5.000000e-04
     vertex -2.646190e-03  4.915868e-03 -5.000000e-04
   endloop
 endfacet
 facet normal  8.433914e-01 -5.372996e-01  0.000000e+00
   outer loop
     vertex -2.646190e-03  4.915868e-03  0.000000e+00
     vertex -2.712613e-03  4.811605e-03  0.000000e+00
     vertex -2.712613e-03  4.811605e-03 -5.000000e-04
   endloop
 endfacet
 facet normal  8.870108e-01 -4.617486e-01  0.000000e+00
   outer loop
     vertex -2.589108e-03  5.025523e-03  0.000000e+00
     vertex -2.646190e-03  4.915868e-03 -5.000000e-04
     vertex -2.589108e-03  5.025523e-03 -5.000000e-04
   endloop
 endfacet
 facet normal  8.870108e-01 -4.617486e-01  0.000000e+00
   outer loop
     vertex -2.589108e-03  5.025523e-03  0.000000e+00
     vertex -2.646190e-03  4.915868e-03  0.000000e+00
     vertex -2.646190e-03  4.915868e-03 -5.000000e-04
   endloop
 endfacet
 facet normal  9.238795e-01 -3.826834e-01  0.000000e+00
   outer loop
     vertex -2.541799e-03  5.139736e-03  0.000000e+00
     vertex -2.589108e-03  5.025523e-03  0.000000e+00
     vertex -2.589108e-03  5.025523e-03 -5.000000e-04
   endloop
 endfacet
 facet normal  9.238795e-01 -3.826834e-01  0.000000e+00
   outer loop
     vertex -2.541799e-03  5.139736e-03  0.000000e+00
     vertex -2.589108e-03  5.025523e-03 -5.000000e-04
     vertex -2.541799e-03  5.139736e-03 -5.000000e-04
   endloop
 endfacet
 facet normal  9.537170e-01 -3.007058e-01  0.000000e+00
   outer loop
     vertex -2.504625e-03  5.257638e-03  0.000000e+00
     vertex -2.541799e-03  5.139736e-03  0.000000e+00
     vertex -2.541799e-03  5.139736e-03 -5.000000e-04
   endloop
 endfacet
 facet normal  9.537170e-01 -3.007058e-01  0.000000e+00
   outer loop
     vertex -2.504625e-03  5.257638e-03  0.000000e+00
     vertex -2.541799e-03  5.139736e-03 -5.000000e-04
     vertex -2.504625e-03  5.257638e-03 -5.000000e-04
   endloop
 endfacet
 facet normal  9.762960e-01 -2.164396e-01  0.000000e+00
   outer loop
     vertex -2.477868e-03  5.378331e-03  0.000000e+00
     vertex -2.504625e-03  5.257638e-03  0.000000e+00
     vertex -2.504625e-03  5.257638e-03 -5.000000e-04
   endloop
 endfacet
 facet normal  9.762960e-01 -2.164396e-01  0.000000e+00
   outer loop
     vertex -2.477868e-03  5.378331e-03  0.000000e+00
     vertex -2.504625e-03  5.257638e-03 -5.000000e-04
     vertex -2.477868e-03  5.378331e-03 -5.000000e-04
   endloop
 endfacet
 facet normal  9.914449e-01 -1.305262e-01  0.000000e+00
   outer loop
     vertex -2.461731e-03  5.500897e-03  0.000000e+00
     vertex -2.477868e-03  5.378331e-03  0.000000e+00
     vertex -2.477868e-03  5.378331e-03 -5.000000e-04
   endloop
 endfacet
 facet normal  9.914449e-01 -1.305262e-01  0.000000e+00
   outer loop
     vertex -2.461731e-03  5.500897e-03  0.000000e+00
     vertex -2.477868e-03  5.378331e-03 -5.000000e-04
     vertex -2.461731e-03  5.500897e-03 -5.000000e-04
   endloop
 endfacet
 facet normal  9.990482e-01 -4.361939e-02  0.000000e+00
   outer loop
     vertex -2.456339e-03  5.624403e-03  0.000000e+00
     vertex -2.461731e-03  5.500897e-03  0.000000e+00
     vertex -2.461731e-03  5.500897e-03 -5.000000e-04
   endloop
 endfacet
 facet normal  9.990482e-01 -4.361939e-02  0.000000e+00
   outer loop
     vertex -2.456339e-03  5.624403e-03  0.000000e+00
     vertex -2.461731e-03  5.500897e-03 -5.000000e-04
     vertex -2.456339e-03  5.624403e-03 -5.000000e-04
   endloop
 endfacet
endsolid
