solid 
 facet normal  0.000000e+00  0.000000e+00  1.000000e+00
   outer loop
     vertex -7.485107e-04 -6.631227e-04  1.000000e-02
     vertex -8.191520e-03 -5.735764e-03  1.000000e-02
     vertex -7.660444e-03 -6.427876e-03  1.000000e-02
   endloop
 endfacet
 facet normal  0.000000e+00  0.000000e+00  1.000000e+00
   outer loop
     vertex -7.485107e-04 -6.631227e-04  1.000000e-02
     vertex -7.660444e-03 -6.427876e-03  1.000000e-02
     vertex -7.071068e-03 -7.071068e-03  1.000000e-02
   endloop
 endfacet
 facet normal  0.000000e+00  0.000000e+00  1.000000e+00
   outer loop
     vertex -7.485107e-04 -6.631227e-04  1.000000e-02
     vertex -7.071068e-03 -7.071068e-03  1.000000e-02
     vertex -6.427876e-03 -7.660444e-03  1.000000e-02
   endloop
 endfacet
 facet normal  0.000000e+00  0.000000e+00  1.000000e+00
   outer loop
     vertex -5.680647e-04 -8.229839e-04  1.000000e-02
     vertex -6.427876e-03 -7.660444e-03  1.000000e-02
     vertex -5.735764e-03 -8.191520e-03  1.000000e-02
   endloop
 endfacet
 facet normal  0.000000e+00  0.000000e+00  1.000000e+00
   outer loop
     vertex -5.680647e-04 -8.229839e-04  1.000000e-02
     vertex -5.735764e-03 -8.191520e-03  1.000000e-02
     vertex -5.000000e-03 -8.660254e-03  1.000000e-02
   endloop
 endfacet
 facet normal  0.000000e+00  0.000000e+00  1.000000e+00
   outer loop
     vertex -5.680647e-04 -8.229839e-04  1.000000e-02
     vertex -7.485107e-04 -6.631227e-04  1.000000e-02
     vertex -6.427876e-03 -7.660444e-03  1.000000e-02
   endloop
 endfacet
 facet normal  0.000000e+00  0.000000e+00  1.000000e+00
   outer loop
     vertex -8.854560e-04 -4.647232e-04  1.000000e-02
     vertex -8.191520e-03 -5.735764e-03  1.000000e-02
     vertex -7.485107e-04 -6.631227e-04  1.000000e-02
   endloop
 endfacet
 facet normal  0.000000e+00  0.000000e+00  1.000000e+00
   outer loop
     vertex -8.854560e-04 -4.647232e-04  1.000000e-02
     vertex -9.396926e-03 -3.420201e-03  1.000000e-02
     vertex -9.063078e-03 -4.226183e-03  1.000000e-02
   endloop
 endfacet
 facet normal  0.000000e+00  0.000000e+00  1.000000e+00
   outer loop
     vertex -8.854560e-04 -4.647232e-04  1.000000e-02
     vertex -9.063078e-03 -4.226183e-03  1.000000e-02
     vertex -8.660254e-03 -5.000000e-03  1.000000e-02
   endloop
 endfacet
 facet normal  0.000000e+00  0.000000e+00  1.000000e+00
   outer loop
     vertex -8.854560e-04 -4.647232e-04  1.000000e-02
     vertex -8.660254e-03 -5.000000e-03  1.000000e-02
     vertex -8.191520e-03 -5.735764e-03  1.000000e-02
   endloop
 endfacet
 facet normal  0.000000e+00  0.000000e+00  1.000000e+00
   outer loop
     vertex -3.546049e-04 -9.350162e-04  1.000000e-02
     vertex -5.000000e-03 -8.660254e-03  1.000000e-02
     vertex -4.226183e-03 -9.063078e-03  1.000000e-02
   endloop
 endfacet
 facet normal  0.000000e+00  0.000000e+00  1.000000e+00
   outer loop
     vertex -3.546049e-04 -9.350162e-04  1.000000e-02
     vertex -4.226183e-03 -9.063078e-03  1.000000e-02
     vertex -3.420201e-03 -9.396926e-03  1.000000e-02
   endloop
 endfacet
 facet normal  0.000000e+00  0.000000e+00  1.000000e+00
   outer loop
     vertex -3.546049e-04 -9.350162e-04  1.000000e-02
     vertex -3.420201e-03 -9.396926e-03  1.000000e-02
     vertex -2.588190e-03 -9.659258e-03  1.000000e-02
   endloop
 endfacet
 facet normal  0.000000e+00  0.000000e+00  1.000000e+00
   outer loop
     vertex -3.546049e-04 -9.350162e-04  1.000000e-02
     vertex -5.680647e-04 -8.229839e-04  1.000000e-02
     vertex -5.000000e-03 -8.660254e-03  1.000000e-02
   endloop
 endfacet
 facet normal  0.000000e+00  0.000000e+00  1.000000e+00
   outer loop
     vertex -9.709418e-04 -2.393157e-04  1.000000e-02
     vertex -9.961947e-03 -8.715574e-04  1.000000e-02
     vertex -9.848078e-03 -1.736482e-03  1.000000e-02
   endloop
 endfacet
 facet normal  0.000000e+00  0.000000e+00  1.000000e+00
   outer loop
     vertex -9.709418e-04 -2.393157e-04  1.000000e-02
     vertex -9.848078e-03 -1.736482e-03  1.000000e-02
     vertex -9.659258e-03 -2.588190e-03  1.000000e-02
   endloop
 endfacet
 facet normal  0.000000e+00  0.000000e+00  1.000000e+00
   outer loop
     vertex -9.709418e-04 -2.393157e-04  1.000000e-02
     vertex -9.659258e-03 -2.588190e-03  1.000000e-02
     vertex -9.396926e-03 -3.420201e-03  1.000000e-02
   endloop
 endfacet
 facet normal  0.000000e+00  0.000000e+00  1.000000e+00
   outer loop
     vertex -9.709418e-04 -2.393157e-04  1.000000e-02
     vertex -9.396926e-03 -3.420201e-03  1.000000e-02
     vertex -8.854560e-04 -4.647232e-04  1.000000e-02
   endloop
 endfacet
 facet normal  0.000000e+00  0.000000e+00  1.000000e+00
   outer loop
     vertex -1.205367e-04 -9.927089e-04  1.000000e-02
     vertex -3.546049e-04 -9.350162e-04  1.000000e-02
     vertex -2.588190e-03 -9.659258e-03  1.000000e-02
   endloop
 endfacet
 facet normal  0.000000e+00  0.000000e+00  1.000000e+00
   outer loop
     vertex -1.205367e-04 -9.927089e-04  1.000000e-02
     vertex -2.588190e-03 -9.659258e-03  1.000000e-02
     vertex -1.736482e-03 -9.848078e-03  1.000000e-02
   endloop
 endfacet
 facet normal  0.000000e+00  0.000000e+00  1.000000e+00
   outer loop
     vertex -1.205367e-04 -9.927089e-04  1.000000e-02
     vertex -1.736482e-03 -9.848078e-03  1.000000e-02
     vertex -8.715574e-04 -9.961947e-03  1.000000e-02
   endloop
 endfacet
 facet normal  0.000000e+00  0.000000e+00  1.000000e+00
   outer loop
     vertex -1.205367e-04 -9.927089e-04  1.000000e-02
     vertex -8.715574e-04 -9.961947e-03  1.000000e-02
     vertex -1.960054e-17 -1.000000e-02  1.000000e-02
   endloop
 endfacet
 facet normal  0.000000e+00  0.000000e+00  1.000000e+00
   outer loop
     vertex -1.000000e-03  0.000000e+00  1.000000e-02
     vertex -1.000000e-02  0.000000e+00  1.000000e-02
     vertex -9.961947e-03 -8.715574e-04  1.000000e-02
   endloop
 endfacet
 facet normal  0.000000e+00  0.000000e+00  1.000000e+00
   outer loop
     vertex -1.000000e-03  0.000000e+00  1.000000e-02
     vertex -9.961947e-03 -8.715574e-04  1.000000e-02
     vertex -9.709418e-04 -2.393157e-04  1.000000e-02
   endloop
 endfacet
 facet normal  0.000000e+00  0.000000e+00  1.000000e+00
   outer loop
     vertex -1.000000e-03  0.000000e+00  1.000000e-02
     vertex -9.961947e-03  8.715574e-04  1.000000e-02
     vertex -1.000000e-02  0.000000e+00  1.000000e-02
   endloop
 endfacet
 facet normal  0.000000e+00  0.000000e+00  1.000000e+00
   outer loop
     vertex  1.205367e-04 -9.927089e-04  1.000000e-02
     vertex -1.960054e-17 -1.000000e-02  1.000000e-02
     vertex  8.715574e-04 -9.961947e-03  1.000000e-02
   endloop
 endfacet
 facet normal  0.000000e+00  0.000000e+00  1.000000e+00
   outer loop
     vertex  1.205367e-04 -9.927089e-04  1.000000e-02
     vertex  8.715574e-04 -9.961947e-03  1.000000e-02
     vertex  1.736482e-03 -9.848078e-03  1.000000e-02
   endloop
 endfacet
 facet normal  0.000000e+00  0.000000e+00  1.000000e+00
   outer loop
     vertex  1.205367e-04 -9.927089e-04  1.000000e-02
     vertex  1.736482e-03 -9.848078e-03  1.000000e-02
     vertex  2.588190e-03 -9.659258e-03  1.000000e-02
   endloop
 endfacet
 facet normal  0.000000e+00  0.000000e+00  1.000000e+00
   outer loop
     vertex  1.205367e-04 -9.927089e-04  1.000000e-02
     vertex -1.205367e-04 -9.927089e-04  1.000000e-02
     vertex -1.960054e-17 -1.000000e-02  1.000000e-02
   endloop
 endfacet
 facet normal  0.000000e+00  0.000000e+00  1.000000e+00
   outer loop
     vertex -9.709418e-04  2.393157e-04  1.000000e-02
     vertex -9.961947e-03  8.715574e-04  1.000000e-02
     vertex -1.000000e-03  0.000000e+00  1.000000e-02
   endloop
 endfacet
 facet normal  0.000000e+00  0.000000e+00  1.000000e+00
   outer loop
     vertex -9.709418e-04  2.393157e-04  1.000000e-02
     vertex -9.396926e-03  3.420201e-03  1.000000e-02
     vertex -9.659258e-03  2.588190e-03  1.000000e-02
   endloop
 endfacet
 facet normal  0.000000e+00  0.000000e+00  1.000000e+00
   outer loop
     vertex -9.709418e-04  2.393157e-04  1.000000e-02
     vertex -9.659258e-03  2.588190e-03  1.000000e-02
     vertex -9.848078e-03  1.736482e-03  1.000000e-02
   endloop
 endfacet
 facet normal  0.000000e+00  0.000000e+00  1.000000e+00
   outer loop
     vertex -9.709418e-04  2.393157e-04  1.000000e-02
     vertex -9.848078e-03  1.736482e-03  1.000000e-02
     vertex -9.961947e-03  8.715574e-04  1.000000e-02
   endloop
 endfacet
 facet normal  0.000000e+00  0.000000e+00  1.000000e+00
   outer loop
     vertex  3.546049e-04 -9.350162e-04  1.000000e-02
     vertex  2.588190e-03 -9.659258e-03  1.000000e-02
     vertex  3.420201e-03 -9.396926e-03  1.000000e-02
   endloop
 endfacet
 facet normal  0.000000e+00  0.000000e+00  1.000000e+00
   outer loop
     vertex  3.546049e-04 -9.350162e-04  1.000000e-02
     vertex  3.420201e-03 -9.396926e-03  1.000000e-02
     vertex  4.226183e-03 -9.063078e-03  1.000000e-02
   endloop
 endfacet
 facet normal  0.000000e+00  0.000000e+00  1.000000e+00
   outer loop
     vertex  3.546049e-04 -9.350162e-04  1.000000e-02
     vertex  4.226183e-03 -9.063078e-03  1.000000e-02
     vertex  5.000000e-03 -8.660254e-03  1.000000e-02
   endloop
 endfacet
 facet normal  0.000000e+00  0.000000e+00  1.000000e+00
   outer loop
     vertex  3.546049e-04 -9.350162e-04  1.000000e-02
     vertex  1.205367e-04 -9.927089e-04  1.000000e-02
     vertex  2.588190e-03 -9.659258e-03  1.000000e-02
   endloop
 endfacet
 facet normal  0.000000e+00  0.000000e+00  1.000000e+00
   outer loop
     vertex -8.854560e-04  4.647232e-04  1.000000e-02
     vertex -8.191520e-03  5.735764e-03  1.000000e-02
     vertex -8.660254e-03  5.000000e-03  1.000000e-02
   endloop
 endfacet
 facet normal  0.000000e+00  0.000000e+00  1.000000e+00
   outer loop
     vertex -8.854560e-04  4.647232e-04  1.000000e-02
     vertex -8.660254e-03  5.000000e-03  1.000000e-02
     vertex -9.063078e-03  4.226183e-03  1.000000e-02
   endloop
 endfacet
 facet normal  0.000000e+00  0.000000e+00  1.000000e+00
   outer loop
     vertex -8.854560e-04  4.647232e-04  1.000000e-02
     vertex -9.063078e-03  4.226183e-03  1.000000e-02
     vertex -9.396926e-03  3.420201e-03  1.000000e-02
   endloop
 endfacet
 facet normal  0.000000e+00  0.000000e+00  1.000000e+00
   outer loop
     vertex -8.854560e-04  4.647232e-04  1.000000e-02
     vertex -9.396926e-03  3.420201e-03  1.000000e-02
     vertex -9.709418e-04  2.393157e-04  1.000000e-02
   endloop
 endfacet
 facet normal  0.000000e+00  0.000000e+00  1.000000e+00
   outer loop
     vertex  5.680647e-04 -8.229839e-04  1.000000e-02
     vertex  5.000000e-03 -8.660254e-03  1.000000e-02
     vertex  5.735764e-03 -8.191520e-03  1.000000e-02
   endloop
 endfacet
 facet normal  0.000000e+00  0.000000e+00  1.000000e+00
   outer loop
     vertex  5.680647e-04 -8.229839e-04  1.000000e-02
     vertex  5.735764e-03 -8.191520e-03  1.000000e-02
     vertex  6.427876e-03 -7.660444e-03  1.000000e-02
   endloop
 endfacet
 facet normal  0.000000e+00  0.000000e+00  1.000000e+00
   outer loop
     vertex  5.680647e-04 -8.229839e-04  1.000000e-02
     vertex  3.546049e-04 -9.350162e-04  1.000000e-02
     vertex  5.000000e-03 -8.660254e-03  1.000000e-02
   endloop
 endfacet
 facet normal  0.000000e+00  0.000000e+00  1.000000e+00
   outer loop
     vertex -7.485107e-04  6.631227e-04  1.000000e-02
     vertex -8.191520e-03  5.735764e-03  1.000000e-02
     vertex -8.854560e-04  4.647232e-04  1.000000e-02
   endloop
 endfacet
 facet normal  0.000000e+00  0.000000e+00  1.000000e+00
   outer loop
     vertex -7.485107e-04  6.631227e-04  1.000000e-02
     vertex -7.660444e-03  6.427876e-03  1.000000e-02
     vertex -8.191520e-03  5.735764e-03  1.000000e-02
   endloop
 endfacet
 facet normal  0.000000e+00  0.000000e+00  1.000000e+00
   outer loop
     vertex -7.071068e-03  7.071068e-03  1.000000e-02
     vertex -7.660444e-03  6.427876e-03  1.000000e-02
     vertex -7.485107e-04  6.631227e-04  1.000000e-02
   endloop
 endfacet
 facet normal  0.000000e+00  0.000000e+00  1.000000e+00
   outer loop
     vertex  7.485107e-04 -6.631227e-04  1.000000e-02
     vertex  6.427876e-03 -7.660444e-03  1.000000e-02
     vertex  7.071068e-03 -7.071068e-03  1.000000e-02
   endloop
 endfacet
 facet normal  0.000000e+00  0.000000e+00  1.000000e+00
   outer loop
     vertex  7.485107e-04 -6.631227e-04  1.000000e-02
     vertex  5.680647e-04 -8.229839e-04  1.000000e-02
     vertex  6.427876e-03 -7.660444e-03  1.000000e-02
   endloop
 endfacet
 facet normal  0.000000e+00  0.000000e+00  1.000000e+00
   outer loop
     vertex  7.660444e-03 -6.427876e-03  1.000000e-02
     vertex  7.485107e-04 -6.631227e-04  1.000000e-02
     vertex  7.071068e-03 -7.071068e-03  1.000000e-02
   endloop
 endfacet
 facet normal  0.000000e+00  0.000000e+00  1.000000e+00
   outer loop
     vertex -6.427876e-03  7.660444e-03  1.000000e-02
     vertex -7.071068e-03  7.071068e-03  1.000000e-02
     vertex -7.485107e-04  6.631227e-04  1.000000e-02
   endloop
 endfacet
 facet normal  0.000000e+00  0.000000e+00  1.000000e+00
   outer loop
     vertex -6.427876e-03  7.660444e-03  1.000000e-02
     vertex -7.485107e-04  6.631227e-04  1.000000e-02
     vertex -5.680647e-04  8.229839e-04  1.000000e-02
   endloop
 endfacet
 facet normal  0.000000e+00  0.000000e+00  1.000000e+00
   outer loop
     vertex  8.191520e-03 -5.735764e-03  1.000000e-02
     vertex  8.854560e-04 -4.647232e-04  1.000000e-02
     vertex  7.485107e-04 -6.631227e-04  1.000000e-02
   endloop
 endfacet
 facet normal  0.000000e+00  0.000000e+00  1.000000e+00
   outer loop
     vertex  8.191520e-03 -5.735764e-03  1.000000e-02
     vertex  7.485107e-04 -6.631227e-04  1.000000e-02
     vertex  7.660444e-03 -6.427876e-03  1.000000e-02
   endloop
 endfacet
 facet normal  0.000000e+00  0.000000e+00  1.000000e+00
   outer loop
     vertex -5.735764e-03  8.191520e-03  1.000000e-02
     vertex -6.427876e-03  7.660444e-03  1.000000e-02
     vertex -5.680647e-04  8.229839e-04  1.000000e-02
   endloop
 endfacet
 facet normal  0.000000e+00  0.000000e+00  1.000000e+00
   outer loop
     vertex  8.660254e-03 -5.000000e-03  1.000000e-02
     vertex  8.854560e-04 -4.647232e-04  1.000000e-02
     vertex  8.191520e-03 -5.735764e-03  1.000000e-02
   endloop
 endfacet
 facet normal  0.000000e+00  0.000000e+00  1.000000e+00
   outer loop
     vertex -5.000000e-03  8.660254e-03  1.000000e-02
     vertex -5.735764e-03  8.191520e-03  1.000000e-02
     vertex -5.680647e-04  8.229839e-04  1.000000e-02
   endloop
 endfacet
 facet normal  0.000000e+00  0.000000e+00  1.000000e+00
   outer loop
     vertex -5.000000e-03  8.660254e-03  1.000000e-02
     vertex -5.680647e-04  8.229839e-04  1.000000e-02
     vertex -3.546049e-04  9.350162e-04  1.000000e-02
   endloop
 endfacet
 facet normal  0.000000e+00  0.000000e+00  1.000000e+00
   outer loop
     vertex  9.063078e-03 -4.226183e-03  1.000000e-02
     vertex  8.854560e-04 -4.647232e-04  1.000000e-02
     vertex  8.660254e-03 -5.000000e-03  1.000000e-02
   endloop
 endfacet
 facet normal  0.000000e+00  0.000000e+00  1.000000e+00
   outer loop
     vertex -4.226183e-03  9.063078e-03  1.000000e-02
     vertex -5.000000e-03  8.660254e-03  1.000000e-02
     vertex -3.546049e-04  9.350162e-04  1.000000e-02
   endloop
 endfacet
 facet normal  0.000000e+00  0.000000e+00  1.000000e+00
   outer loop
     vertex  9.396926e-03 -3.420201e-03  1.000000e-02
     vertex  8.854560e-04 -4.647232e-04  1.000000e-02
     vertex  9.063078e-03 -4.226183e-03  1.000000e-02
   endloop
 endfacet
 facet normal  0.000000e+00  0.000000e+00  1.000000e+00
   outer loop
     vertex  9.396926e-03 -3.420201e-03  1.000000e-02
     vertex  9.709418e-04 -2.393157e-04  1.000000e-02
     vertex  8.854560e-04 -4.647232e-04  1.000000e-02
   endloop
 endfacet
 facet normal  0.000000e+00  0.000000e+00  1.000000e+00
   outer loop
     vertex -3.420201e-03  9.396926e-03  1.000000e-02
     vertex -4.226183e-03  9.063078e-03  1.000000e-02
     vertex -3.546049e-04  9.350162e-04  1.000000e-02
   endloop
 endfacet
 facet normal  0.000000e+00  0.000000e+00  1.000000e+00
   outer loop
     vertex  9.659258e-03 -2.588190e-03  1.000000e-02
     vertex  9.709418e-04 -2.393157e-04  1.000000e-02
     vertex  9.396926e-03 -3.420201e-03  1.000000e-02
   endloop
 endfacet
 facet normal  0.000000e+00  0.000000e+00  1.000000e+00
   outer loop
     vertex -2.588190e-03  9.659258e-03  1.000000e-02
     vertex -3.420201e-03  9.396926e-03  1.000000e-02
     vertex -3.546049e-04  9.350162e-04  1.000000e-02
   endloop
 endfacet
 facet normal  0.000000e+00  0.000000e+00  1.000000e+00
   outer loop
     vertex -2.588190e-03  9.659258e-03  1.000000e-02
     vertex -3.546049e-04  9.350162e-04  1.000000e-02
     vertex -1.205367e-04  9.927089e-04  1.000000e-02
   endloop
 endfacet
 facet normal  0.000000e+00  0.000000e+00  1.000000e+00
   outer loop
     vertex  9.848078e-03 -1.736482e-03  1.000000e-02
     vertex  9.709418e-04 -2.393157e-04  1.000000e-02
     vertex  9.659258e-03 -2.588190e-03  1.000000e-02
   endloop
 endfacet
 facet normal  0.000000e+00  0.000000e+00  1.000000e+00
   outer loop
     vertex -1.736482e-03  9.848078e-03  1.000000e-02
     vertex -2.588190e-03  9.659258e-03  1.000000e-02
     vertex -1.205367e-04  9.927089e-04  1.000000e-02
   endloop
 endfacet
 facet normal  0.000000e+00  0.000000e+00  1.000000e+00
   outer loop
     vertex  9.961947e-03 -8.715574e-04  1.000000e-02
     vertex  9.709418e-04 -2.393157e-04  1.000000e-02
     vertex  9.848078e-03 -1.736482e-03  1.000000e-02
   endloop
 endfacet
 facet normal  0.000000e+00  0.000000e+00  1.000000e+00
   outer loop
     vertex  9.961947e-03 -8.715574e-04  1.000000e-02
     vertex  1.000000e-03  1.224647e-19  1.000000e-02
     vertex  9.709418e-04 -2.393157e-04  1.000000e-02
   endloop
 endfacet
 facet normal  0.000000e+00  0.000000e+00  1.000000e+00
   outer loop
     vertex -8.715574e-04  9.961947e-03  1.000000e-02
     vertex -1.736482e-03  9.848078e-03  1.000000e-02
     vertex -1.205367e-04  9.927089e-04  1.000000e-02
   endloop
 endfacet
 facet normal  0.000000e+00  0.000000e+00  1.000000e+00
   outer loop
     vertex  1.000000e-02  1.224647e-18  1.000000e-02
     vertex  1.000000e-03  1.224647e-19  1.000000e-02
     vertex  9.961947e-03 -8.715574e-04  1.000000e-02
   endloop
 endfacet
 facet normal  0.000000e+00  0.000000e+00  1.000000e+00
   outer loop
     vertex  7.273662e-18  1.000000e-02  1.000000e-02
     vertex -8.715574e-04  9.961947e-03  1.000000e-02
     vertex -1.205367e-04  9.927089e-04  1.000000e-02
   endloop
 endfacet
 facet normal  0.000000e+00  0.000000e+00  1.000000e+00
   outer loop
     vertex  7.273662e-18  1.000000e-02  1.000000e-02
     vertex -1.205367e-04  9.927089e-04  1.000000e-02
     vertex  1.205367e-04  9.927089e-04  1.000000e-02
   endloop
 endfacet
 facet normal  0.000000e+00  0.000000e+00  1.000000e+00
   outer loop
     vertex  9.961947e-03  8.715574e-04  1.000000e-02
     vertex  1.000000e-03  1.224647e-19  1.000000e-02
     vertex  1.000000e-02  1.224647e-18  1.000000e-02
   endloop
 endfacet
 facet normal  0.000000e+00  0.000000e+00  1.000000e+00
   outer loop
     vertex  9.961947e-03  8.715574e-04  1.000000e-02
     vertex  9.709418e-04  2.393157e-04  1.000000e-02
     vertex  1.000000e-03  1.224647e-19  1.000000e-02
   endloop
 endfacet
 facet normal  0.000000e+00  0.000000e+00  1.000000e+00
   outer loop
     vertex  8.715574e-04  9.961947e-03  1.000000e-02
     vertex  7.273662e-18  1.000000e-02  1.000000e-02
     vertex  1.205367e-04  9.927089e-04  1.000000e-02
   endloop
 endfacet
 facet normal  0.000000e+00  0.000000e+00  1.000000e+00
   outer loop
     vertex  9.848078e-03  1.736482e-03  1.000000e-02
     vertex  9.709418e-04  2.393157e-04  1.000000e-02
     vertex  9.961947e-03  8.715574e-04  1.000000e-02
   endloop
 endfacet
 facet normal  0.000000e+00  0.000000e+00  1.000000e+00
   outer loop
     vertex  1.736482e-03  9.848078e-03  1.000000e-02
     vertex  8.715574e-04  9.961947e-03  1.000000e-02
     vertex  1.205367e-04  9.927089e-04  1.000000e-02
   endloop
 endfacet
 facet normal  0.000000e+00  0.000000e+00  1.000000e+00
   outer loop
     vertex  9.659258e-03  2.588190e-03  1.000000e-02
     vertex  9.709418e-04  2.393157e-04  1.000000e-02
     vertex  9.848078e-03  1.736482e-03  1.000000e-02
   endloop
 endfacet
 facet normal  0.000000e+00  0.000000e+00  1.000000e+00
   outer loop
     vertex  2.588190e-03  9.659258e-03  1.000000e-02
     vertex  1.736482e-03  9.848078e-03  1.000000e-02
     vertex  1.205367e-04  9.927089e-04  1.000000e-02
   endloop
 endfacet
 facet normal  0.000000e+00  0.000000e+00  1.000000e+00
   outer loop
     vertex  2.588190e-03  9.659258e-03  1.000000e-02
     vertex  1.205367e-04  9.927089e-04  1.000000e-02
     vertex  3.546049e-04  9.350162e-04  1.000000e-02
   endloop
 endfacet
 facet normal  0.000000e+00  0.000000e+00  1.000000e+00
   outer loop
     vertex  9.396926e-03  3.420201e-03  1.000000e-02
     vertex  9.709418e-04  2.393157e-04  1.000000e-02
     vertex  9.659258e-03  2.588190e-03  1.000000e-02
   endloop
 endfacet
 facet normal  0.000000e+00  0.000000e+00  1.000000e+00
   outer loop
     vertex  9.396926e-03  3.420201e-03  1.000000e-02
     vertex  8.854560e-04  4.647232e-04  1.000000e-02
     vertex  9.709418e-04  2.393157e-04  1.000000e-02
   endloop
 endfacet
 facet normal  0.000000e+00  0.000000e+00  1.000000e+00
   outer loop
     vertex  3.420201e-03  9.396926e-03  1.000000e-02
     vertex  2.588190e-03  9.659258e-03  1.000000e-02
     vertex  3.546049e-04  9.350162e-04  1.000000e-02
   endloop
 endfacet
 facet normal  0.000000e+00  0.000000e+00  1.000000e+00
   outer loop
     vertex  9.063078e-03  4.226183e-03  1.000000e-02
     vertex  8.854560e-04  4.647232e-04  1.000000e-02
     vertex  9.396926e-03  3.420201e-03  1.000000e-02
   endloop
 endfacet
 facet normal  0.000000e+00  0.000000e+00  1.000000e+00
   outer loop
     vertex  4.226183e-03  9.063078e-03  1.000000e-02
     vertex  3.420201e-03  9.396926e-03  1.000000e-02
     vertex  3.546049e-04  9.350162e-04  1.000000e-02
   endloop
 endfacet
 facet normal  0.000000e+00  0.000000e+00  1.000000e+00
   outer loop
     vertex  8.660254e-03  5.000000e-03  1.000000e-02
     vertex  8.854560e-04  4.647232e-04  1.000000e-02
     vertex  9.063078e-03  4.226183e-03  1.000000e-02
   endloop
 endfacet
 facet normal  0.000000e+00  0.000000e+00  1.000000e+00
   outer loop
     vertex  5.000000e-03  8.660254e-03  1.000000e-02
     vertex  4.226183e-03  9.063078e-03  1.000000e-02
     vertex  3.546049e-04  9.350162e-04  1.000000e-02
   endloop
 endfacet
 facet normal  0.000000e+00  0.000000e+00  1.000000e+00
   outer loop
     vertex  5.000000e-03  8.660254e-03  1.000000e-02
     vertex  3.546049e-04  9.350162e-04  1.000000e-02
     vertex  5.680647e-04  8.229839e-04  1.000000e-02
   endloop
 endfacet
 facet normal  0.000000e+00  0.000000e+00  1.000000e+00
   outer loop
     vertex  8.191520e-03  5.735764e-03  1.000000e-02
     vertex  8.854560e-04  4.647232e-04  1.000000e-02
     vertex  8.660254e-03  5.000000e-03  1.000000e-02
   endloop
 endfacet
 facet normal  0.000000e+00  0.000000e+00  1.000000e+00
   outer loop
     vertex  8.191520e-03  5.735764e-03  1.000000e-02
     vertex  7.485107e-04  6.631227e-04  1.000000e-02
     vertex  8.854560e-04  4.647232e-04  1.000000e-02
   endloop
 endfacet
 facet normal  0.000000e+00  0.000000e+00  1.000000e+00
   outer loop
     vertex  5.735764e-03  8.191520e-03  1.000000e-02
     vertex  5.000000e-03  8.660254e-03  1.000000e-02
     vertex  5.680647e-04  8.229839e-04  1.000000e-02
   endloop
 endfacet
 facet normal  0.000000e+00  0.000000e+00  1.000000e+00
   outer loop
     vertex  7.660444e-03  6.427876e-03  1.000000e-02
     vertex  7.485107e-04  6.631227e-04  1.000000e-02
     vertex  8.191520e-03  5.735764e-03  1.000000e-02
   endloop
 endfacet
 facet normal  0.000000e+00  0.000000e+00  1.000000e+00
   outer loop
     vertex  6.427876e-03  7.660444e-03  1.000000e-02
     vertex  5.680647e-04  8.229839e-04  1.000000e-02
     vertex  7.485107e-04  6.631227e-04  1.000000e-02
   endloop
 endfacet
 facet normal  0.000000e+00  0.000000e+00  1.000000e+00
   outer loop
     vertex  6.427876e-03  7.660444e-03  1.000000e-02
     vertex  5.735764e-03  8.191520e-03  1.000000e-02
     vertex  5.680647e-04  8.229839e-04  1.000000e-02
   endloop
 endfacet
 facet normal  0.000000e+00  0.000000e+00  1.000000e+00
   outer loop
     vertex  7.071068e-03  7.071068e-03  1.000000e-02
     vertex  7.485107e-04  6.631227e-04  1.000000e-02
     vertex  7.660444e-03  6.427876e-03  1.000000e-02
   endloop
 endfacet
 facet normal  0.000000e+00  0.000000e+00  1.000000e+00
   outer loop
     vertex  7.071068e-03  7.071068e-03  1.000000e-02
     vertex  6.427876e-03  7.660444e-03  1.000000e-02
     vertex  7.485107e-04  6.631227e-04  1.000000e-02
   endloop
 endfacet
endsolid
